<svg width="32" height="33" viewBox="0 0 32 33" fill="none" xmlns="http://www.w3.org/2000/svg">
<path d="M7.27871 32.7875V11.1962H0.40644V32.7875H7.27871ZM3.84401 8.2466C6.23971 8.2466 7.73095 6.59102 7.73095 4.51705C7.68801 2.39826 6.24257 0.787506 3.8898 0.787506C1.53703 0.787506 0 2.40125 0 4.51705C0 6.59102 1.49123 8.2466 3.79821 8.2466H3.84401ZM17.8919 32.7875V20.7292C17.8919 20.0837 17.9377 19.4382 18.1209 18.978C18.6161 17.69 19.7467 16.3542 21.6472 16.3542C24.1345 16.3542 25.1277 18.3325 25.1277 21.2373V32.7875H32V20.4035C32 13.7692 28.6111 10.6852 24.0887 10.6852C20.4422 10.6852 18.8079 12.777 17.8919 14.2503V14.325H17.8462L17.8919 14.2503V11.1962H11.0225C11.1084 13.2223 11.0225 32.7875 11.0225 32.7875H17.8919Z" fill="black"/>
</svg>
