<svg width="42" height="42" viewBox="0 0 42 42" fill="none" xmlns="http://www.w3.org/2000/svg">
<rect width="42" height="42" rx="5" fill="#050505"/>
<path d="M22.4021 20.1134C22.4021 28.1546 15.9879 30.9691 11.0398 31H6C6 26.9794 8.07699 24.134 8.50461 20.5464C8.8406 17.7629 7.89373 14.5464 6 10H9.90964C9.94018 10 9.97072 10 10.0013 10H10.1845C17.2097 10.0619 22.4021 13.2165 22.4021 20.1134ZM10.4289 29.9175C10.8565 30.3505 11.4368 30.567 12.0783 30.567C14.6745 30.567 18.4009 26.9794 18.4009 20.1134C18.4009 13.3711 16.9959 10.433 10.2456 10.3402C10.4594 12.134 9.51256 16.9588 8.93223 20.4845C8.35189 23.8866 8.99332 27.2577 10.4289 29.9175ZM24.1651 25.4639C24.5622 27.5052 25.448 29.4536 26.3643 31H21.7827C21.7827 26.9794 22.8212 23.8866 24.0735 20.5773C25.2952 17.2062 27.8609 14.5773 26.1505 10H29.9378C30.0908 10.3093 30.1824 10.5876 30.1824 10.9278C30.4573 18.8454 38.3071 26.9485 36.8105 31H32.7176C33.1452 28.9588 33.2368 27.134 33.1452 25.4639H24.1651ZM24.44 20.5155C23.8902 22 23.8597 23.5464 24.104 25.0928H33.1146C32.687 20.268 30.5795 16.5876 29.9378 12.1959C28.9911 14.6701 25.509 17.5773 24.44 20.5155Z" fill="white"/>
</svg>
