<svg width="1787" height="183" viewBox="0 0 1787 183" fill="none" xmlns="http://www.w3.org/2000/svg">
<path d="M177.362 88.5899C177.362 157.02 110.74 180.97 59.346 181.233H7C7 147.018 28.5729 122.805 33.0144 92.2745C36.5041 68.5873 26.6694 41.2155 7 2.5264H47.6078C47.925 2.5264 48.2423 2.5264 48.5595 2.5264H50.463C123.43 3.05276 177.362 29.8983 177.362 88.5899ZM53.001 172.021C57.4425 175.706 63.4702 177.548 70.1324 177.548C97.0985 177.548 135.803 147.018 135.803 88.5899C135.803 31.2142 121.209 6.21107 51.0975 5.42148C53.3183 20.6866 43.4836 61.7444 37.4559 91.7481C31.4281 120.699 38.0904 149.387 53.001 172.021ZM207.729 92.0113C200.749 124.647 210.584 157.283 229.619 181.233H177.273C177.273 147.018 198.846 122.805 203.287 92.5377C206.777 68.8505 196.943 41.4787 177.273 2.5264H220.736C237.868 26.74 214.391 59.3757 207.729 92.0113ZM403.988 2.78959C388.123 92.0113 272.645 124.384 288.824 181.233H235.528C237.749 145.702 278.672 137.28 312.935 116.488C281.845 87.0107 239.018 54.6382 229.817 2.78959H277.403C265.665 66.4818 288.19 95.4328 316.742 114.119C345.295 95.4328 368.136 66.4818 356.398 2.78959H403.988ZM572.008 92.2745C572.008 160.967 534.258 182.549 487.94 182.549C475.25 182.549 401.331 182.549 401.331 92.2745C401.331 18.581 441.622 2 487.94 2C497.14 2 572.008 9.89575 572.008 92.2745ZM405.455 92.2745C405.455 132.016 455.58 155.44 498.092 155.44C540.286 155.44 568.521 132.016 568.521 92.2745C568.521 52.5327 520.299 27.0032 478.105 27.0032C435.594 27.0032 405.455 52.5327 405.455 92.2745ZM649.201 134.122C653.325 151.493 662.525 168.074 672.043 181.233H624.456C624.456 147.018 635.242 120.699 648.249 92.5377C660.939 63.8499 687.588 41.4787 669.822 2.5264H709.161C710.747 5.15831 711.699 7.52703 711.699 10.4221C714.554 77.799 796.087 146.755 780.544 181.233H738.031C742.472 163.862 743.424 148.334 742.472 134.122H649.201ZM652.056 92.0113C646.346 104.645 646.029 117.804 648.567 130.964H742.155C737.713 89.9058 715.823 58.5861 709.161 21.213C699.326 42.2682 663.16 67.0082 652.056 92.0113ZM813.104 91.7481C806.125 124.647 815.96 157.283 834.995 181.233H782.649C782.649 147.018 804.221 122.805 808.663 92.2745C812.153 68.8505 802.318 41.2155 782.649 2.5264H826.112C852.76 57.5333 883.534 121.226 910.182 176.496C928.583 140.175 937.148 113.856 933.976 91.2218C929.534 60.9548 907.962 36.7412 907.962 2.5264H960.308C941.273 26.2136 931.438 59.1125 938.417 91.7481C945.08 124.384 968.239 157.02 951.107 181.233H907.962L832.139 24.3712C831.505 44.9001 817.863 68.3241 813.104 91.7481ZM1130.72 131.227C1118.34 168.337 1081.86 181.233 1046.33 181.233C1033.64 181.233 960.355 181.233 960.355 91.485C960.355 18.581 1000.33 2 1046.33 2C1053.31 2 1100.26 7.79019 1120.25 49.3744H1117.08C1100.9 36.2148 1059.02 26.74 1036.49 28.3191C994.617 31.7406 964.479 52.0063 964.479 91.485C964.479 131.227 1014.29 159.125 1056.16 159.125C1084.08 159.125 1118.03 155.704 1130.72 124.384C1120.25 123.331 1109.78 122.805 1099.31 122.805C1075.83 122.805 1051.4 125.437 1026.98 130.7L1028.56 119.646H1133.89V178.601H1130.72V131.227ZM1304.4 131.227C1292.03 168.337 1255.54 181.233 1220.01 181.233C1207.32 181.233 1134.04 181.233 1134.04 91.485C1134.04 18.581 1174.01 2 1220.01 2C1226.99 2 1273.94 7.79019 1293.93 49.3744H1290.76C1274.58 36.2148 1232.7 26.74 1210.18 28.3191C1168.3 31.7406 1138.16 52.0063 1138.16 91.485C1138.16 131.227 1187.97 159.125 1229.85 159.125C1257.77 159.125 1291.71 155.704 1304.4 124.384C1293.93 123.331 1283.46 122.805 1272.99 122.805C1249.52 122.805 1225.09 125.437 1200.66 130.7L1202.25 119.646H1307.57V178.601H1304.4V131.227ZM1332.46 134.122C1336.59 151.493 1345.79 168.074 1355.3 181.233H1307.72C1307.72 147.018 1318.5 120.699 1331.51 92.5377C1344.2 63.8499 1370.85 41.4787 1353.08 2.5264H1392.42C1394.01 5.15831 1394.96 7.52703 1394.96 10.4221C1397.82 77.799 1479.35 146.755 1463.8 181.233H1421.29C1425.73 163.862 1426.68 148.334 1425.73 134.122H1332.46ZM1335.32 92.0113C1329.61 104.645 1329.29 117.804 1331.83 130.964H1425.42C1420.97 89.9058 1399.08 58.5861 1392.42 21.213C1382.59 42.2682 1346.42 67.0082 1335.32 92.0113ZM1496.05 92.5377C1489.7 125.173 1499.54 157.546 1518.26 181.233H1465.91C1465.91 147.018 1487.48 122.805 1491.92 92.5377C1495.41 68.8505 1485.58 41.4787 1465.91 2.5264H1509.37C1540.15 2.5264 1620.73 3.31595 1620.73 41.2155C1620.73 67.2714 1594.4 85.6948 1534.12 90.9586C1564.26 128.069 1632.78 162.02 1619.14 181.233H1572.19C1588.05 142.807 1552.52 117.804 1530.95 91.2218C1520.48 92.0113 1508.74 92.5377 1496.05 92.5377ZM1510.01 5.68467C1511.91 20.4234 1503.03 59.6388 1496.68 89.3794C1569.33 89.1162 1587.42 67.7978 1587.42 41.2155C1587.42 5.94788 1539.19 5.68467 1510.01 5.68467ZM1645.74 134.122C1649.87 151.493 1659.07 168.074 1668.59 181.233H1621C1621 147.018 1631.79 120.699 1644.79 92.5377C1657.48 63.8499 1684.13 41.4787 1666.37 2.5264H1705.7C1707.29 5.15831 1708.24 7.52703 1708.24 10.4221C1711.1 77.799 1792.63 146.755 1777.09 181.233H1734.57C1739.02 163.862 1739.97 148.334 1739.02 134.122H1645.74ZM1648.6 92.0113C1642.89 104.645 1642.57 117.804 1645.11 130.964H1738.7C1734.26 89.9058 1712.37 58.5861 1705.7 21.213C1695.87 42.2682 1659.7 67.0082 1648.6 92.0113Z" fill="black"/>
</svg>
