<svg width="27598" height="2813" viewBox="0 0 27598 2813" fill="none" xmlns="http://www.w3.org/2000/svg">
<path d="M2653.23 1349.09C2653.23 2415.24 1615.65 2788.4 815.237 2792.5H0C0 2259.42 335.976 1882.17 405.148 1406.5C459.497 1037.45 306.331 610.987 0 8.20139H632.426C637.367 8.20139 642.308 8.20139 647.249 8.20139H676.894C1813.28 16.4022 2653.23 434.662 2653.23 1349.09ZM716.42 2648.98C785.592 2706.38 879.468 2735.09 983.225 2735.09C1403.2 2735.09 2005.98 2259.42 2005.98 1349.09C2005.98 455.165 1778.7 65.6096 686.775 53.3075C721.361 291.142 568.196 930.833 474.32 1398.3C380.444 1849.36 484.202 2296.33 716.42 2648.98ZM3126.16 1402.4C3017.46 1910.87 3170.62 2419.34 3467.07 2792.5H2651.84C2651.84 2259.42 2987.81 1882.17 3056.98 1410.6C3111.33 1041.55 2958.17 615.088 2651.84 8.20139H3328.73C3595.53 385.455 3229.91 893.927 3126.16 1402.4ZM6182.7 12.302C5935.62 1402.4 4137.15 1906.77 4389.14 2792.5H3559.1C3593.68 2238.92 4231.03 2107.7 4764.64 1783.75C4280.44 1324.49 3613.44 820.117 3470.16 12.302H4211.27C4028.45 1004.64 4379.25 1455.71 4823.93 1746.85C5268.6 1455.71 5624.34 1004.64 5441.53 12.302H6182.7ZM8799.44 1406.5C8799.44 2476.75 8211.52 2813 7490.16 2813C7292.53 2813 6141.32 2813 6141.32 1406.5C6141.32 258.337 6768.8 0 7490.16 0C7633.45 0 8799.44 123.018 8799.44 1406.5ZM6205.55 1406.5C6205.55 2025.69 6986.2 2390.64 7648.27 2390.64C8305.4 2390.64 8745.13 2025.69 8745.13 1406.5C8745.13 787.312 7994.13 389.556 7337 389.556C6674.93 389.556 6205.55 787.312 6205.55 1406.5ZM10001.6 2058.49C10065.9 2329.13 10209.2 2587.47 10357.4 2792.5H9616.26C9616.26 2259.42 9784.25 1849.36 9986.83 1410.6C10184.5 963.637 10599.5 615.088 10322.8 8.20139H10935.5C10960.2 49.2072 10975 86.1125 10975 131.219C11019.5 1180.97 12289.3 2255.32 12047.2 2792.5H11385.1C11454.3 2521.86 11469.1 2279.92 11454.3 2058.49H10001.6ZM10046.1 1402.4C9957.18 1599.23 9952.24 1804.26 9991.77 2009.29H11449.3C11380.1 1369.59 11039.2 881.626 10935.5 299.343C10782.3 627.389 10219 1012.84 10046.1 1402.4ZM12554.3 1398.3C12445.6 1910.87 12598.7 2419.34 12895.2 2792.5H12080C12080 2259.42 12415.9 1882.17 12485.1 1406.5C12539.5 1041.55 12386.3 610.987 12080 8.20139H12756.9C13171.9 865.223 13651.1 1857.56 14066.2 2718.69C14352.7 2152.81 14486.1 1742.75 14436.7 1390.1C14367.6 918.531 14031.6 541.277 14031.6 8.20139H14846.8C14550.4 377.254 14397.2 889.827 14505.9 1398.3C14609.7 1906.77 14970.3 2415.24 14703.5 2792.5H14031.6L12850.7 348.55C12840.8 668.395 12628.4 1033.35 12554.3 1398.3ZM17500.8 2013.39C17308.1 2591.57 16739.9 2792.5 16186.5 2792.5C15988.9 2792.5 14847.6 2792.5 14847.6 1394.2C14847.6 258.337 15470.1 0 16186.5 0C16295.2 0 17026.5 90.2127 17337.7 738.105H17288.3C17036.3 533.076 16384.2 385.455 16033.4 410.059C15381.2 463.366 14911.8 779.111 14911.8 1394.2C14911.8 2013.39 15687.5 2448.05 16339.7 2448.05C16774.5 2448.05 17303.2 2394.74 17500.8 1906.77C17337.7 1890.37 17174.7 1882.17 17011.6 1882.17C16646 1882.17 16265.6 1923.17 15885.1 2005.19L15909.8 1832.96H17550.2V2751.49H17500.8V2013.39ZM20205.7 2013.39C20013 2591.57 19444.8 2792.5 18891.5 2792.5C18693.8 2792.5 17552.5 2792.5 17552.5 1394.2C17552.5 258.337 18175.1 0 18891.5 0C19000.2 0 19731.4 90.2127 20042.7 738.105H19993.3C19741.3 533.076 19089.1 385.455 18738.3 410.059C18086.1 463.366 17616.7 779.111 17616.7 1394.2C17616.7 2013.39 18392.4 2448.05 19044.6 2448.05C19479.4 2448.05 20008.1 2394.74 20205.7 1906.77C20042.7 1890.37 19879.6 1882.17 19716.6 1882.17C19351 1882.17 18970.5 1923.17 18590.1 2005.19L18614.8 1832.96H20255.1V2751.49H20205.7V2013.39ZM20642.8 2058.49C20707 2329.13 20850.3 2587.47 20998.5 2792.5H20257.4C20257.4 2259.42 20425.4 1849.36 20627.9 1410.6C20825.6 963.637 21240.6 615.088 20963.9 8.20139H21576.6C21601.3 49.2072 21616.1 86.1125 21616.1 131.219C21660.6 1180.97 22930.4 2255.32 22688.3 2792.5H22026.2C22095.4 2521.86 22110.2 2279.92 22095.4 2058.49H20642.8ZM20687.2 1402.4C20598.3 1599.23 20593.4 1804.26 20632.9 2009.29H22090.4C22021.3 1369.59 21680.3 881.626 21576.6 299.343C21423.4 627.389 20860.2 1012.84 20687.2 1402.4ZM23190.5 1410.6C23091.6 1919.07 23244.8 2423.44 23536.3 2792.5H22721.1C22721.1 2259.42 23057.1 1882.17 23126.2 1410.6C23180.6 1041.55 23027.4 615.088 22721.1 8.20139H23398C23877.2 8.20139 25132.2 20.5028 25132.2 610.987C25132.2 1016.94 24722.1 1303.99 23783.4 1386C24252.7 1964.18 25320 2493.15 25107.5 2792.5H24376.3C24623.3 2193.81 24069.9 1804.26 23733.9 1390.1C23570.9 1402.4 23388.1 1410.6 23190.5 1410.6ZM23407.9 57.4081C23437.5 287.041 23299.2 898.028 23200.3 1361.39C24331.8 1357.29 24613.4 1025.15 24613.4 610.987C24613.4 61.5089 23862.4 57.4081 23407.9 57.4081ZM25521.8 2058.49C25586.1 2329.13 25729.3 2587.47 25877.6 2792.5H25136.4C25136.4 2259.42 25304.4 1849.36 25507 1410.6C25704.6 963.637 26119.7 615.088 25843 8.20139H26455.6C26480.4 49.2072 26495.2 86.1125 26495.2 131.219C26539.6 1180.97 27809.4 2255.32 27567.3 2792.5H26905.3C26974.4 2521.86 26989.3 2279.92 26974.4 2058.49H25521.8ZM25566.3 1402.4C25477.4 1599.23 25472.4 1804.26 25512 2009.29H26969.5C26900.3 1369.59 26559.4 881.626 26455.6 299.343C26302.5 627.389 25739.2 1012.84 25566.3 1402.4Z" fill="black"/>
</svg>
