<svg width="49" height="214" viewBox="0 0 49 214" fill="none" xmlns="http://www.w3.org/2000/svg">
<rect width="214" height="49" transform="translate(0 214) rotate(-90)" fill="black"/>
<path d="M20.8281 185.752C21.0156 185.783 21.1823 185.825 21.3281 185.877L25.5234 187.361L25.5234 184.143L21.3359 185.635C21.2422 185.676 21.0729 185.715 20.8281 185.752ZM30 182.564L27.2031 183.572L27.2031 187.916L30 188.877L30 191.018L18.7969 186.775L18.7969 184.666L30 180.408L30 182.564ZM29.6484 173.369C30.013 173.994 30.1953 174.762 30.1953 175.674C30.1953 176.882 29.8151 177.851 29.0547 178.58C28.2891 179.304 27.3333 179.666 26.1875 179.666C25.2865 179.666 24.5104 179.492 23.8594 179.143C23.2031 178.788 22.6979 178.296 22.3437 177.666C21.9844 177.031 21.8047 176.252 21.8047 175.33C21.8047 174.575 21.9453 173.921 22.2266 173.369L23.9922 173.369C23.5859 173.968 23.3828 174.596 23.3828 175.252C23.3828 175.971 23.625 176.557 24.1094 177.01C24.5937 177.458 25.2344 177.682 26.0312 177.682C26.8385 177.682 27.4714 177.471 27.9297 177.049C28.3828 176.622 28.6094 176.033 28.6094 175.283C28.6094 174.59 28.4115 173.952 28.0156 173.369L29.6484 173.369ZM30 166.322L25.4844 166.322C24.0833 166.322 23.3828 166.817 23.3828 167.807C23.3828 168.343 23.5807 168.778 23.9766 169.111C24.3724 169.445 24.862 169.614 25.4453 169.619L30 169.619L30 171.525L18.1641 171.525L18.1641 169.619L23.1328 169.619C22.2474 169.015 21.8047 168.184 21.8047 167.127C21.8047 166.236 22.0859 165.559 22.6484 165.096C23.2057 164.627 24.026 164.393 25.1094 164.393L30 164.393L30 166.322ZM20.1797 160.611C20.1797 160.929 20.0755 161.2 19.8672 161.424C19.6589 161.648 19.3984 161.76 19.0859 161.76C18.763 161.76 18.4974 161.648 18.2891 161.424C18.0807 161.195 17.9766 160.924 17.9766 160.611C17.9766 160.268 18.0833 159.989 18.2969 159.775C18.5104 159.562 18.7734 159.455 19.0859 159.455C19.4036 159.455 19.6667 159.567 19.875 159.791C20.0781 160.01 20.1797 160.283 20.1797 160.611ZM30 161.588L23.3281 161.588L23.3281 162.994L22 162.994L22 159.674L30 159.674L30 161.588ZM30 153.439L30 155.439L22 158.416L22 156.314L27.3125 154.596L27.3047 154.596C27.5651 154.502 27.8854 154.424 28.2656 154.361C27.9167 154.299 27.6068 154.221 27.3359 154.127L22 152.346L22 150.33L30 153.439ZM25.1719 143.947C24.5625 143.958 24.0859 144.122 23.7422 144.439C23.3932 144.757 23.2187 145.236 23.2187 145.877C23.2187 146.221 23.3047 146.551 23.4766 146.869C23.6484 147.187 23.901 147.439 24.2344 147.627C24.5625 147.814 24.875 147.908 25.1719 147.908L25.1719 143.947ZM26.6562 147.908C27.2969 147.908 27.8151 147.674 28.2109 147.205C28.6016 146.736 28.7969 146.119 28.7969 145.354C28.7969 144.317 28.5573 143.361 28.0781 142.486L29.5078 142.486C29.7578 142.976 29.9349 143.452 30.0391 143.916C30.1432 144.38 30.1953 144.929 30.1953 145.564C30.1953 146.538 30.0078 147.343 29.6328 147.979C29.2578 148.614 28.7552 149.072 28.125 149.354C27.4948 149.635 26.8073 149.775 26.0625 149.775C24.75 149.775 23.7135 149.406 22.9531 148.666C22.1927 147.926 21.8099 146.968 21.8047 145.791C21.8047 145.088 21.9427 144.473 22.2187 143.947C22.4896 143.416 22.9115 142.992 23.4844 142.674C24.0521 142.356 24.763 142.197 25.6172 142.197L26.6562 142.197L26.6562 147.908ZM30 130.189L25.5 130.189C24.7552 130.189 24.2161 130.307 23.8828 130.541C23.5495 130.77 23.3828 131.156 23.3828 131.697C23.3828 132.14 23.5859 132.518 23.9922 132.83C24.3984 133.137 24.9089 133.291 25.5234 133.291L30 133.291L30 135.205L25.3516 135.205C24.0391 135.205 23.3828 135.7 23.3828 136.689C23.3828 137.158 23.5781 137.544 23.9687 137.846C24.3594 138.143 24.8776 138.291 25.5234 138.291L30 138.291L30 140.197L22 140.197L22 138.291L23.1094 138.291C22.2396 137.729 21.8047 136.906 21.8047 135.822C21.8047 135.296 21.9323 134.833 22.1875 134.432C22.4427 134.031 22.8047 133.739 23.2734 133.557C22.7578 133.249 22.3854 132.88 22.1562 132.447C21.9219 132.01 21.8047 131.499 21.8047 130.916C21.8047 129.156 22.8958 128.275 25.0781 128.275L30 128.275L30 130.189ZM25.1719 120.682C24.5625 120.692 24.0859 120.856 23.7422 121.174C23.3932 121.492 23.2187 121.971 23.2187 122.611C23.2187 122.955 23.3047 123.286 23.4766 123.604C23.6484 123.921 23.901 124.174 24.2344 124.361C24.5625 124.549 24.875 124.643 25.1719 124.643L25.1719 120.682ZM26.6562 124.643C27.2969 124.643 27.8151 124.408 28.2109 123.939C28.6016 123.471 28.7969 122.854 28.7969 122.088C28.7969 121.051 28.5573 120.096 28.0781 119.221L29.5078 119.221C29.7578 119.71 29.9349 120.187 30.0391 120.65C30.1432 121.114 30.1953 121.663 30.1953 122.299C30.1953 123.273 30.0078 124.077 29.6328 124.713C29.2578 125.348 28.7552 125.807 28.125 126.088C27.4948 126.369 26.8073 126.51 26.0625 126.51C24.75 126.51 23.7135 126.14 22.9531 125.4C22.1927 124.661 21.8099 123.702 21.8047 122.525C21.8047 121.822 21.9427 121.208 22.2187 120.682C22.4896 120.15 22.9115 119.726 23.4844 119.408C24.0521 119.09 24.763 118.932 25.6172 118.932L26.6562 118.932L26.6562 124.643ZM30 111.689L25.5234 111.689C24.0964 111.689 23.3828 112.197 23.3828 113.213C23.3828 113.723 23.5807 114.153 23.9766 114.502C24.3724 114.851 24.8724 115.025 25.4766 115.025L30 115.025L30 116.932L22 116.932L22 115.025L23.1641 115.025C22.2578 114.437 21.8047 113.59 21.8047 112.486C21.8047 110.684 22.9062 109.783 25.1094 109.783L30 109.783L30 111.689ZM29.9453 102.643C30.1172 103.158 30.2031 103.734 30.2031 104.369C30.2031 105.218 29.9896 105.864 29.5625 106.307C29.1354 106.749 28.5208 106.971 27.7187 106.971L23.3281 106.971L23.3281 108.58L22 108.58L22 106.971L20.0937 106.971L19.5937 105.244L22 105.244L22 102.643L23.3281 102.643L23.3281 105.244L27.1406 105.244C27.6562 105.244 28.0286 105.124 28.2578 104.885C28.4818 104.645 28.5937 104.268 28.5937 103.752C28.5937 103.429 28.5391 103.059 28.4297 102.643L29.9453 102.643Z" fill="#fff"/>
<path d="M33.5363 45.1211V56.4268C33.5363 57.1822 32.7308 57.6649 32.0647 57.3086L24.9718 53.5147C24.6771 53.3571 24.3231 53.3571 24.0284 53.5147L16.9355 57.3086C16.2694 57.6649 15.4639 57.1822 15.4639 56.4268V45.1211C15.4639 44.5688 15.9116 44.1211 16.4639 44.1211H32.5363C33.0886 44.1211 33.5363 44.5688 33.5363 45.1211Z" stroke="#fff" stroke-width="2"/>
<circle cx="24.5" cy="33.4043" r="13.5" fill="black" stroke="#fff" stroke-width="2"/>
<path d="M24.4755 25.0816L25.7696 29.0643C25.9704 29.6824 26.5464 30.1008 27.1962 30.1008H31.3839C31.8683 30.1008 32.0697 30.7206 31.6778 31.0053L28.2899 33.4668C27.7641 33.8488 27.5442 34.5258 27.745 35.1439L29.0391 39.1266C29.1887 39.5873 28.6615 39.9704 28.2696 39.6857L24.8817 37.2242C24.3559 36.8422 23.6441 36.8422 23.1183 37.2242L19.7304 39.6857C19.3385 39.9704 18.8113 39.5873 18.9609 39.1266L20.255 35.1439C20.4558 34.5258 20.2359 33.8488 19.7101 33.4668L16.3222 31.0053C15.9303 30.7206 16.1317 30.1008 16.6161 30.1008H20.8038C21.4536 30.1008 22.0296 29.6824 22.2304 29.0643L23.5245 25.0816C23.6741 24.6209 24.3259 24.6209 24.4755 25.0816Z" stroke="#fff"/>
</svg>
