<svg width="22.91" height="30.56" viewBox="0 0 145 126" fill="none" xmlns="http://www.w3.org/2000/svg">
<path d="M3.27565 116.616L3.23165 116.743L3.19913 116.873C3.01356 117.615 2.74025 119.085 3.54322 120.462C4.51014 122.12 6.21828 122.4 7.20955 122.4H25.8905C27.0038 122.471 28.1092 122.148 29.0107 121.484C29.9061 120.824 30.5397 119.873 30.8048 118.797L37.6923 97.5004H70.5701L78.0511 119.214C78.3485 120.188 78.9679 121.035 79.8097 121.614C80.6335 122.18 81.6205 122.456 82.6152 122.4H103.41C104.252 122.4 105.952 122.201 106.948 120.592C107.811 119.197 107.492 117.703 107.304 117.011L107.275 116.903L107.237 116.798L70.7859 13.9357C70.5509 13.077 70.0224 12.2575 69.1518 11.6942C68.2811 11.1308 67.3405 11.0004 66.6096 11.0004H40.7096H40.4174L40.1308 11.0568C39.1409 11.2514 38.261 11.8129 37.6675 12.6289C37.121 13.3804 36.8546 14.2965 36.9095 15.2192C36.9057 17.109 36.734 18.9947 36.3967 20.8541C36.1224 21.6917 35.8843 22.5082 35.6772 23.2184C35.5985 23.4885 35.5243 23.7431 35.4542 23.9777L3.27565 116.616ZM45.515 71.2004C46.5655 68.0342 47.6003 64.6413 48.5859 61.0551C49.5731 57.9685 50.5301 54.8578 51.4665 51.8138C52.041 49.9465 52.6077 48.1043 53.169 46.308C53.445 45.452 53.7119 44.5932 53.9694 43.7316C54.5844 45.8198 55.247 47.9283 55.9544 50.1214C56.9563 53.2272 57.9465 56.2972 58.8361 59.2624L58.8477 59.3011C59.7393 62.2731 60.654 65.3224 61.5746 67.9817C61.9561 69.084 62.3183 70.1647 62.6534 71.2004H45.515Z" fill="white" stroke="black" stroke-width="6"/>
<path d="M115.096 29.625L115.155 29.6901L115.219 29.7515C116.681 31.1733 118.412 32.2899 120.31 33.0364C122.17 33.7678 124.155 34.1296 126.152 34.1019C128.218 34.2092 130.285 33.8809 132.216 33.1379C134.187 32.3801 135.971 31.2085 137.45 29.7021L137.464 29.6881L137.478 29.674C138.923 28.1624 140.051 26.3764 140.795 24.4215C141.527 22.4975 141.872 20.4484 141.811 18.3915C141.907 14.3638 140.444 10.4531 137.724 7.47686L137.701 7.45152L137.678 7.42673C134.818 4.43696 130.984 3.00283 126.421 3.0004C122.344 2.97143 118.412 4.51901 115.449 7.32016L115.439 7.32955L115.429 7.33903C113.934 8.77863 112.758 10.5173 111.98 12.4417C111.214 14.3342 110.85 16.3644 110.908 18.4042C110.799 22.5442 112.299 26.567 115.096 29.625ZM112.01 40.9004V117.741C111.963 118.306 112.025 118.876 112.195 119.419C112.393 120.051 112.731 120.631 113.185 121.114C113.638 121.598 114.195 121.973 114.813 122.211C115.382 122.43 115.99 122.529 116.599 122.5H136.11C137.118 122.5 138.459 122.198 139.429 121.001C140.283 119.946 140.41 118.709 140.41 117.9V40.9004C140.41 40.0696 140.233 38.8682 139.333 37.8625C138.376 36.7928 137.109 36.5004 136.11 36.5004H116.31C115.487 36.5004 114.17 36.6761 113.141 37.7655C112.152 38.8127 112.01 40.1003 112.01 40.9004Z" fill="white" stroke="black" stroke-width="6"/>
</svg>
