<svg width="90" height="90" viewBox="0 0 90 90" fill="none" xmlns="http://www.w3.org/2000/svg">
<rect width="90" height="90" rx="5" fill="white"/>
<path d="M45.1222 57.9818H29.9978L26.9078 67.5362C26.8733 67.7104 26.7749 67.8653 26.632 67.9706C26.489 68.076 26.3119 68.124 26.1353 68.1054H18.4918C18.0445 68.1054 17.9226 67.8615 18.0445 67.3736L31.1362 29.6844C31.2581 29.2778 31.3801 28.8306 31.5427 28.3427C31.7064 27.4713 31.788 26.5865 31.7867 25.7C31.7745 25.5981 31.8012 25.4955 31.8616 25.4125C31.9219 25.3296 32.0113 25.2725 32.1119 25.2527H42.6422C42.9674 25.2527 43.13 25.3747 43.1707 25.578L58.0106 67.4549C58.1325 67.9021 58.0106 68.1054 57.604 68.1054H49.1066C48.9629 68.1193 48.8189 68.082 48.7 68.0002C48.581 67.9184 48.4947 67.7973 48.4561 67.6582L45.1222 57.9818ZM32.3559 49.7284H42.6828C42.4389 48.8746 42.1136 47.8581 41.7477 46.8011C41.3818 45.744 41.0159 44.5242 40.6499 43.3045C40.284 42.0848 39.8775 40.8244 39.4709 39.5641C39.0643 38.3037 38.6984 37.1246 38.3731 35.9456C38.0479 34.7665 37.7633 33.7501 37.4787 32.7743H37.3974C37.032 34.5463 36.5705 36.2972 36.015 38.0191C35.4052 39.9706 34.7953 42.0035 34.1448 44.0364C33.5756 46.1099 32.9657 48.0208 32.3559 49.7284V49.7284Z" fill="#1E1E1E"/>
<path d="M66.8738 32.2051C66.2065 32.2197 65.5428 32.1014 64.9216 31.8571C64.3004 31.6128 63.734 31.2474 63.2553 30.7821C62.3238 29.7636 61.8277 28.4211 61.873 27.0417C61.849 26.3695 61.9669 25.6999 62.2191 25.0764C62.4713 24.4529 62.8521 23.8896 63.3366 23.4232C64.3139 22.4995 65.6105 21.9896 66.9551 22.0002C68.5408 22.0002 69.7605 22.488 70.6549 23.4232C71.5557 24.409 72.0369 25.7069 71.9966 27.0417C72.0214 27.7286 71.9083 28.4135 71.6639 29.056C71.4195 29.6984 71.0487 30.2854 70.5736 30.7821C70.0946 31.2701 69.5164 31.6496 68.8781 31.8951C68.2399 32.1406 67.5564 32.2463 66.8738 32.2051V32.2051ZM62.3202 67.4956V36.1895C62.3202 35.783 62.4828 35.6203 62.8488 35.6203H70.8989C71.2648 35.6203 71.4274 35.8236 71.4274 36.1895V67.4956C71.4274 67.9428 71.2648 68.1461 70.8989 68.1461H62.9301C62.8446 68.1531 62.7587 68.1408 62.6787 68.11C62.5987 68.0792 62.5267 68.0307 62.468 67.9681C62.4094 67.9056 62.3657 67.8306 62.3401 67.7488C62.3145 67.6669 62.3077 67.5804 62.3202 67.4956V67.4956Z" fill="#1E1E1E"/>
</svg>
