<svg width="90" height="90" viewBox="0 0 90 90" fill="none" xmlns="http://www.w3.org/2000/svg">
<rect width="90" height="90" rx="5" fill="white"/>
<path d="M43.1222 57.9818H27.9978L24.9078 67.5362C24.8733 67.7104 24.7749 67.8653 24.632 67.9706C24.489 68.076 24.3119 68.124 24.1353 68.1054H16.4918C16.0445 68.1054 15.9226 67.8615 16.0445 67.3736L29.1362 29.6844C29.2581 29.2778 29.3801 28.8306 29.5427 28.3427C29.7064 27.4713 29.788 26.5865 29.7867 25.7C29.7745 25.5981 29.8012 25.4955 29.8616 25.4125C29.9219 25.3296 30.0113 25.2725 30.1119 25.2527H40.6422C40.9674 25.2527 41.13 25.3747 41.1707 25.578L56.0106 67.4549C56.1325 67.9021 56.0106 68.1054 55.604 68.1054H47.1066C46.9629 68.1193 46.8189 68.082 46.7 68.0002C46.581 67.9184 46.4947 67.7973 46.4561 67.6582L43.1222 57.9818ZM30.3559 49.7284H40.6828C40.4389 48.8746 40.1136 47.8581 39.7477 46.8011C39.3818 45.744 39.0159 44.5242 38.6499 43.3045C38.284 42.0848 37.8775 40.8244 37.4709 39.5641C37.0643 38.3037 36.6984 37.1246 36.3731 35.9456C36.0479 34.7665 35.7633 33.7501 35.4787 32.7743H35.3974C35.032 34.5463 34.5705 36.2972 34.015 38.0191C33.4052 39.9706 32.7953 42.0035 32.1448 44.0364C31.5756 46.1099 30.9657 48.0208 30.3559 49.7284V49.7284Z" fill="#1E1E1E"/>
<path d="M64.8738 32.2051C64.2065 32.2197 63.5428 32.1014 62.9216 31.8571C62.3004 31.6128 61.734 31.2474 61.2553 30.7821C60.3238 29.7636 59.8277 28.4211 59.873 27.0417C59.849 26.3695 59.9669 25.6999 60.2191 25.0764C60.4713 24.4529 60.8521 23.8896 61.3366 23.4232C62.3139 22.4995 63.6105 21.9896 64.9551 22.0002C66.5408 22.0002 67.7605 22.488 68.6549 23.4232C69.5557 24.409 70.0369 25.7069 69.9966 27.0417C70.0214 27.7286 69.9083 28.4135 69.6639 29.056C69.4195 29.6984 69.0487 30.2854 68.5736 30.7821C68.0946 31.2701 67.5164 31.6496 66.8781 31.8951C66.2399 32.1406 65.5564 32.2463 64.8738 32.2051V32.2051ZM60.3202 67.4956V36.1895C60.3202 35.783 60.4828 35.6203 60.8488 35.6203H68.8989C69.2648 35.6203 69.4274 35.8236 69.4274 36.1895V67.4956C69.4274 67.9428 69.2648 68.1461 68.8989 68.1461H60.9301C60.8446 68.1531 60.7587 68.1408 60.6787 68.11C60.5987 68.0792 60.5267 68.0307 60.468 67.9681C60.4094 67.9056 60.3657 67.8306 60.3401 67.7488C60.3145 67.6669 60.3077 67.5804 60.3202 67.4956V67.4956Z" fill="#1E1E1E"/>
</svg>
