<svg width="64" height="58" viewBox="0 0 94 88" fill="none" xmlns="http://www.w3.org/2000/svg">
<path fill-rule="evenodd" clip-rule="evenodd" d="M63.4125 86.5875C63.7027 86.8785 64.0476 87.1094 64.4272 87.267C64.8069 87.4245 65.2139 87.5056 65.625 87.5056C66.036 87.5056 66.443 87.4245 66.8227 87.267C67.2023 87.1094 67.5472 86.8785 67.8375 86.5875L92.8375 61.5875C93.4243 61.0007 93.7539 60.2048 93.7539 59.375C93.7539 58.5452 93.4243 57.7493 92.8375 57.1625C92.2507 56.5757 91.4548 56.2461 90.625 56.2461C89.7951 56.2461 88.9993 56.5757 88.4125 57.1625L68.75 76.8313V15.625C68.75 11.481 67.1038 7.50671 64.1735 4.57646C61.2432 1.6462 57.269 0 53.125 0H3.12496C2.29616 0 1.5013 0.32924 0.915249 0.915291C0.329198 1.50134 -3.95775e-05 2.2962 -3.95775e-05 3.125C-3.95775e-05 3.9538 0.329198 4.74866 0.915249 5.33471C1.5013 5.92076 2.29616 6.25 3.12496 6.25H53.125C55.6114 6.25 57.9959 7.23772 59.7541 8.99587C61.5122 10.754 62.5 13.1386 62.5 15.625V76.8313L42.8375 57.1625C42.2507 56.5757 41.4548 56.2461 40.625 56.2461C39.7951 56.2461 38.9993 56.5757 38.4125 57.1625C37.8257 57.7493 37.496 58.5452 37.496 59.375C37.496 60.2048 37.8257 61.0007 38.4125 61.5875L63.4125 86.5875Z" fill="black"/>
</svg>
