<svg width="74" height="61" viewBox="0 0 74 61" fill="none" xmlns="http://www.w3.org/2000/svg">
<path d="M72.6811 21.7307C72.0331 19.5945 71.1219 17.1236 69.9859 14.4446C69.6949 13.7778 69.3968 13.0952 69.0925 12.3983L68.8445 11.8533L68.3445 10.8302C68.0039 10.1403 67.6601 9.44385 67.3133 8.74133C65.9123 5.92175 64.4094 2.96905 62.862 0C60.6555 2.51086 58.4948 5.02777 56.4654 7.43329C55.9618 8.03357 55.4627 8.6286 54.9682 9.21808L54.2398 10.0934L53.8686 10.5656C53.4076 11.1705 52.9562 11.763 52.5153 12.3417C50.7765 14.6749 49.3054 16.8594 48.1694 18.781C45.8974 22.6243 44.9657 25.4167 45.9128 26.2471C46.8598 27.0775 49.5064 25.7886 53.0197 23.0336C54.7763 21.6561 56.7497 19.9121 58.8356 17.8831C58.913 17.8062 58.9953 17.7244 59.0733 17.6469C58.9622 17.9957 58.8516 18.3424 58.7325 18.7219C57.3872 22.8931 55.6101 29.004 52.4488 35.8977C50.8572 39.3145 48.8785 42.9398 46.2337 46.1012C43.6139 49.285 40.223 51.7571 36.3954 52.247C34.548 52.49 32.1584 52.3675 30.3964 51.7601C28.5849 51.1545 27.2754 50.164 26.3252 48.6094C25.9595 48.0181 25.654 47.334 25.4092 46.5825C25.4518 46.5228 25.4967 46.4657 25.5392 46.4058C27.1535 44.0906 28.6499 41.6302 29.9808 38.9728C31.292 36.2806 32.5207 33.5345 33.2731 30.0569C33.4562 29.1808 33.5924 28.2098 33.6208 27.0857C33.5995 26.4531 33.6102 25.8944 33.4301 25.0676L33.306 24.4976C33.238 24.2723 33.1433 24.02 33.0494 23.7856C32.9532 23.5478 32.8482 23.313 32.736 23.084C32.628 22.8572 32.4013 22.5413 32.2118 22.2869C31.5462 21.2617 29.9587 20.2351 28.7673 20.038C27.4884 19.6826 26.061 19.8864 25.1277 20.2409C24.157 20.597 23.4719 21.0555 22.8948 21.4976C22.3595 21.932 21.8913 22.3811 21.525 22.8032C20.034 24.5148 19.2129 26.1191 18.4626 27.7549C17.7366 29.3859 17.181 31.0292 16.7422 32.7066C15.8768 36.0587 15.4675 39.4681 15.6521 42.9633C15.6994 43.7825 15.7845 44.6132 15.9093 45.447C13.9871 47.8906 11.9261 49.9551 9.86625 51.23C9.0388 51.7148 8.55772 51.9243 8.43413 51.9774C8.21416 52.0578 7.94566 52.037 7.74333 51.8935C7.64506 51.8218 7.54948 51.7367 7.4727 51.6327C7.45097 51.603 7.43376 51.5921 7.40764 51.546L7.32023 51.3716C7.26109 51.2376 7.20445 51.1768 7.14238 50.981C6.88261 50.2729 6.64964 49.4703 6.50096 48.6124C5.87572 45.1725 5.85325 41.6226 5.86137 38.5759C5.88218 35.5025 5.99992 32.8185 6.06004 30.6147C6.20299 26.2037 6.14946 23.7003 5.52904 23.5681C4.9182 23.4369 3.78953 25.7216 2.55131 30.0693C1.94353 32.2468 1.29924 34.9369 0.779768 38.1381C0.515486 39.7377 0.292219 41.4681 0.144819 43.3399C0.00419444 45.2151 -0.0769213 47.2221 0.105696 49.4551C0.18614 50.5656 0.372481 51.7559 0.709273 53.0336C0.778303 53.34 0.945723 53.7531 1.07231 54.1088L1.28575 54.6624C1.36912 54.8542 1.48802 55.0684 1.5944 55.2692C2.01298 56.1011 2.5869 56.844 3.24895 57.5073C4.58989 58.8321 6.5374 59.5309 8.52366 59.3928C10.6166 59.2145 12.2749 58.4664 13.4972 57.8661C15.602 56.7675 17.4238 55.3756 19.0966 53.8439C20.1031 55.2935 21.3551 56.6101 22.7889 57.6484C24.3768 58.7817 26.1249 59.6037 27.8475 60.0912C31.3509 61.0667 34.4644 61.082 37.7782 60.5381C41.0359 59.952 44.0142 58.5177 46.4005 56.7326C48.8072 54.9464 50.6906 52.8539 52.2077 50.7415C55.2549 46.5004 57.0755 42.2145 58.4374 38.295C59.7991 34.3667 60.6146 30.749 61.2049 27.5682C61.7816 24.3841 62.0885 21.6254 62.2251 19.3623C62.2549 18.8601 62.2754 18.3865 62.2899 17.9339C62.3695 18.064 62.4531 18.2006 62.532 18.3294C64.0773 20.7951 65.5808 22.9573 66.9607 24.712C69.7206 28.2215 71.9861 30.1011 73.103 29.5189C74.22 28.9368 73.9769 26.0032 72.6811 21.7307Z" fill="black"/>
</svg>
