<svg width="128" height="129" viewBox="0 0 128 129" fill="none" xmlns="http://www.w3.org/2000/svg">
<rect x="1" y="1.5" width="126" height="126" rx="19" stroke="black" stroke-width="2"/>
<path d="M33.0166 22C26.9683 22 22.4942 27.3291 22.6939 33.1086C22.886 38.6599 22.6366 45.8513 20.8373 51.7147C19.0339 57.5968 15.9831 61.3138 11 61.7921V67.2086C15.9831 67.686 19.0339 71.4039 20.8373 77.2859C22.6366 83.1493 22.8852 90.3408 22.6939 95.8923C22.4933 101.672 26.9683 107 33.0166 107H94.9918C101.04 107 105.514 101.671 105.315 95.8923C105.122 90.3408 105.372 83.1493 107.17 77.2859C108.974 71.4047 112.017 67.6869 117 67.2086V61.7921C112.017 61.3147 108.975 57.5968 107.17 51.7147C105.372 45.8513 105.122 38.6599 105.315 33.1086C105.514 27.3291 101.04 22 94.991 22H33.0166ZM81.9916 74.3127C81.9916 82.2708 76.0908 87.0953 66.299 87.0953H48.2458C48.136 87.0953 48.0308 87.0514 47.9532 86.9734C47.8756 86.8953 47.832 86.7893 47.832 86.6789V42.304C47.8318 42.2492 47.8425 42.1949 47.8633 42.1444C47.884 42.0937 47.9144 42.0477 47.9529 42.0089C47.9913 41.9702 48.037 41.9395 48.0872 41.9184C48.1375 41.8975 48.1913 41.8867 48.2458 41.8867H66.2037C74.369 41.8867 79.7272 46.3356 79.7272 53.1658C79.7272 57.9598 76.1228 62.2509 71.5299 63.0031V63.2541C77.7813 63.9436 81.9916 68.2983 81.9916 74.3127ZM64.4812 47.6204H54.9768V61.123H62.9828C69.1702 61.123 72.5824 58.617 72.5824 54.1368C72.5824 49.9389 69.6489 47.6204 64.4812 47.6204ZM54.9768 66.481V81.3625H64.8326C71.2754 81.3625 74.6884 78.7624 74.6884 73.8742C74.6884 68.9869 71.1801 66.481 64.418 66.481H54.9768Z" fill="#7952B3"/>
</svg>
