<svg width="128" height="129" viewBox="0 0 128 129" fill="none" xmlns="http://www.w3.org/2000/svg">
<rect x="1" y="1.5" width="126" height="126" rx="19" stroke="black" stroke-width="0"/>
<path d="M28.097 105.813L20 15H108.967L100.863 105.798L64.429 115.9L28.097 105.813Z" fill="#1572B6"/>
<path d="M64.4854 108.179L93.9244 100.017L100.85 22.4268H64.4854V108.179Z" fill="#33A9DC"/>
<path d="M64.4844 55.3272H79.2224L80.2414 43.9222H64.4844V32.7842H92.4134L92.1464 35.7722L89.4094 66.4642H64.4844V55.3272Z" fill="white"/>
<path d="M64.551 84.2532L64.502 84.2672L52.098 80.9172L51.304 72.0342H40.125L41.686 89.5224L64.5 95.8554L64.552 95.8404L64.551 84.2532Z" fill="#EBEBEB"/>
<path d="M78.2757 65.9932L76.9337 80.9092L64.5117 84.2622V95.8505L87.3447 89.5225L87.5127 87.6402L89.4507 65.9932H78.2757Z" fill="white"/>
<path d="M64.524 32.7842V43.9212H37.621L37.397 41.4182L36.89 35.7722L36.623 32.7842H64.524ZM64.485 55.3282V66.4662H52.238L52.015 63.9632L51.507 58.3162L51.24 55.3282H64.485Z" fill="#EBEBEB"/>
</svg>
