<svg width="74" height="74" viewBox="0 0 74 74" fill="none" xmlns="http://www.w3.org/2000/svg">
<path d="M1.67835 26.0128C1.67835 26.0128 -0.0598716 24.7449 2.02863 23.054L6.89128 18.6594C6.89128 18.6594 8.28438 17.1786 9.75615 18.4696L54.6472 52.802V69.2657C54.6472 69.2657 54.6248 71.8513 51.3413 71.5665L1.67835 26.0128Z" fill="black" stroke="white" stroke-width="2"/>
<path d="M13.2631 36.6935L1.53538 47.3451C1.53538 47.3451 0.330777 48.2401 1.53538 49.8422L6.97994 54.7884C6.97994 54.7884 8.273 56.1776 10.1852 54.5981L22.6147 45.1791L13.2631 36.6935ZM33.8489 36.7816L55.3531 20.3747L55.214 3.9608C55.214 3.9608 54.2957 0.378357 51.2319 2.2444L22.6147 28.2664L33.8489 36.7816Z" fill="black" stroke="white" stroke-width="2"/>
<path d="M51.7452 71.3734C52.9861 72.6465 54.4914 72.2287 54.4914 72.2287L71.1511 64.0099C73.2842 62.5536 72.9856 60.7477 72.9856 60.7477V11.6584C72.9856 9.49994 70.7803 8.75503 70.7803 8.75503L56.3398 1.78504C53.1851 -0.167665 51.1175 2.13756 51.1175 2.13756C51.1175 2.13756 53.7746 0.220681 55.0763 3.84813V68.7556C55.0763 69.2023 54.9814 69.6397 54.7917 70.035C54.4122 70.8048 53.5849 71.5202 51.6075 71.2203L51.7452 71.3734Z" fill="black" stroke="white" stroke-width="2"/>
</svg>
