<svg width="22.91" height="30.56" viewBox="0 0 68 119" fill="none" xmlns="http://www.w3.org/2000/svg">
<path d="M31.91 82V79H28.91H17.455C13.1324 79 9.44968 81.334 6.94954 84.669C4.45138 88.0014 3 92.4683 3 97.28C3 102.092 4.45138 106.559 6.94954 109.891C9.44968 113.226 13.1324 115.56 17.455 115.56C21.7776 115.56 25.4603 113.226 27.9605 109.891C30.4586 106.559 31.91 102.092 31.91 97.28V82Z" fill="white" stroke="black" stroke-width="6"/>
<path d="M31.91 44V41H28.91H17.455C13.1324 41 9.44968 43.334 6.94954 46.669C4.45138 50.0014 3 54.4683 3 59.28C3 64.0917 4.45138 68.5586 6.94954 71.891C9.44968 75.226 13.1324 77.56 17.455 77.56H28.91H31.91V74.56V44Z" fill="white" stroke="black" stroke-width="6"/>
<path d="M31.91 6V3H28.91H17.455C13.1324 3 9.44968 5.33405 6.94954 8.66901C4.45138 12.0014 3 16.4683 3 21.28C3 26.0917 4.45138 30.5586 6.94954 33.891C9.44968 37.226 13.1324 39.56 17.455 39.56H28.91H31.91V36.56V6Z" fill="white" stroke="black" stroke-width="6"/>
<path d="M39 3H36V6V36.56V39.56H39H50.455C54.7776 39.56 58.4603 37.226 60.9605 33.891C63.4586 30.5586 64.91 26.0917 64.91 21.28C64.91 16.4683 63.4586 12.0014 60.9605 8.66901C58.4603 5.33405 54.7776 3 50.455 3H39Z" fill="white" stroke="black" stroke-width="6"/>
<path d="M50.455 79.56C54.7776 79.56 58.4603 77.226 60.9605 73.891C63.4586 70.5586 64.91 66.0917 64.91 61.28C64.91 56.4683 63.4586 52.0014 60.9605 48.669C58.4603 45.334 54.7776 43 50.455 43C46.1324 43 42.4497 45.334 39.9495 48.669C37.4514 52.0014 36 56.4683 36 61.28C36 66.0917 37.4514 70.5586 39.9495 73.891C42.4497 77.226 46.1324 79.56 50.455 79.56Z" fill="white" stroke="black" stroke-width="6"/>
</svg>
