<svg width="128" height="130" viewBox="0 0 128 130" fill="none" xmlns="http://www.w3.org/2000/svg">
<g clip-path="url(#clip0_104_14)">
<path d="M45.5 129.5C57.4 129.5 67 119.9 67 108V86.5H45.5C33.6 86.5 24 96.1 24 108C24 119.9 33.6 129.5 45.5 129.5Z" fill="#0ACF83"/>
<path d="M24 65C24 53.1 33.6 43.5 45.5 43.5H67V86.5H45.5C33.6 86.5 24 76.9 24 65Z" fill="#A259FF"/>
<path d="M24 22C24 10.1 33.6 0.5 45.5 0.5H67V43.5H45.5C33.6 43.5 24 33.9 24 22Z" fill="#F24E1E"/>
<path d="M67 0.5H88.5C100.4 0.5 110 10.1 110 22C110 33.9 100.4 43.5 88.5 43.5H67V0.5Z" fill="#FF7262"/>
<path d="M110 65C110 76.9 100.4 86.5 88.5 86.5C76.6 86.5 67 76.9 67 65C67 53.1 76.6 43.5 88.5 43.5C100.4 43.5 110 53.1 110 65Z" fill="#1ABCFE"/>
</g>
<rect x="1" y="1.5" width="126" height="127" rx="19" stroke="black" stroke-width="2"/>
<defs>
<clipPath id="clip0_104_14">
<rect y="0.5" width="128" height="129" rx="20" fill="white"/>
</clipPath>
</defs>
</svg>
