<svg width="104" height="29" viewBox="0 0 104 29" fill="none" xmlns="http://www.w3.org/2000/svg">
<g clip-path="url(#clip0_162_70)">
<path d="M19.9417 12.8591H11.2413C11.0168 12.8591 10.8348 13.0413 10.8348 13.2658V17.5196C10.8348 17.7441 11.0168 17.9269 11.2413 17.9269H14.6353V23.2118C14.6353 23.2118 13.8732 23.4717 11.7662 23.4717C9.28053 23.4717 5.80806 22.5633 5.80806 14.9276C5.80806 7.28988 9.42397 6.28522 12.8185 6.28522C15.7572 6.28522 17.0229 6.80235 17.8286 7.05186C18.0819 7.12948 18.3159 6.87738 18.3159 6.65258L19.2863 2.54282C19.2863 2.43733 19.2507 2.31113 19.1311 2.22518C18.804 1.99177 16.8081 0.875 11.7662 0.875C5.95811 0.875 0 3.34597 0 15.2254C0 27.1048 6.82134 28.875 12.5696 28.875C17.329 28.875 20.2162 26.8412 20.2162 26.8412C20.3352 26.7754 20.3482 26.609 20.3482 26.5331V13.2658C20.3482 13.0413 20.1662 12.8591 19.9417 12.8591Z" fill="#1E1E1E"/>
<path d="M64.7813 2.29546C64.7813 2.06894 64.602 1.88641 64.3772 1.88641H59.4784C59.2547 1.88641 59.0728 2.06894 59.0728 2.29546L59.0742 11.7625H51.4379V2.29546C51.4379 2.06894 51.258 1.88641 51.0338 1.88641H46.1352C45.9124 1.88641 45.7305 2.06894 45.7305 2.29546V27.9299C45.7305 28.1561 45.9124 28.3398 46.1352 28.3398H51.0338C51.258 28.3398 51.4379 28.1561 51.4379 27.9299V16.9649H59.0742L59.0607 27.9299C59.0607 28.1561 59.2424 28.3398 59.4666 28.3398H64.3769C64.6014 28.3398 64.7808 28.1561 64.7813 27.9299V2.29546Z" fill="#1E1E1E"/>
<path d="M29.1846 5.66356C29.1846 3.89973 27.7706 2.47424 26.0258 2.47424C24.2826 2.47424 22.8672 3.89973 22.8672 5.66356C22.8672 7.42596 24.2826 8.85548 26.0258 8.85548C27.7706 8.85548 29.1846 7.42596 29.1846 5.66356Z" fill="#1E1E1E"/>
<path d="M28.8343 22.5258C28.8343 21.869 28.8343 10.693 28.8343 10.693C28.8343 10.4682 28.6529 10.2845 28.429 10.2845H23.5454C23.3215 10.2845 23.1211 10.5156 23.1211 10.7401C23.1211 10.7401 23.1211 24.979 23.1211 27.6934C23.1211 28.1915 23.4315 28.3398 23.8331 28.3398C23.8331 28.3398 25.9178 28.3398 28.2329 28.3398C28.7159 28.3398 28.8343 28.1027 28.8343 27.6853C28.8343 26.7767 28.8343 23.2169 28.8343 22.5258Z" fill="#1E1E1E"/>
<path d="M83.3984 10.3245H78.5373C78.3145 10.3245 78.1328 10.5084 78.1328 10.7347V23.3037C78.1328 23.3037 76.8976 24.2075 75.1447 24.2075C73.3921 24.2075 72.927 23.4121 72.927 21.696C72.927 19.9773 72.927 10.7347 72.927 10.7347C72.927 10.5084 72.7459 10.3245 72.5225 10.3245H67.5886C67.3661 10.3245 67.1836 10.5084 67.1836 10.7347C67.1836 10.7347 67.1836 17.4281 67.1836 22.5256C67.1836 27.6239 70.0248 28.8711 73.9334 28.8711C77.1402 28.8711 79.7256 27.0993 79.7256 27.0993C79.7256 27.0993 79.8486 28.0332 79.9044 28.1436C79.9599 28.254 80.105 28.3658 80.262 28.3658L83.4007 28.3517C83.6232 28.3517 83.8058 28.1677 83.8058 27.9424L83.804 10.7347C83.804 10.5084 83.6226 10.3245 83.3984 10.3245Z" fill="#1E1E1E"/>
<path d="M94.7677 24.1906C93.0814 24.1394 91.9377 23.3739 91.9377 23.3739V15.2562C91.9377 15.2562 93.0659 14.5646 94.4503 14.4409C96.2009 14.284 97.8877 14.8129 97.8877 18.9891C97.8877 23.3926 97.1265 24.2616 94.7677 24.1906ZM96.685 9.74734C93.924 9.74734 92.046 10.9791 92.046 10.9791V2.29906C92.046 2.07255 91.8649 1.89001 91.6419 1.89001H86.729C86.5056 1.89001 86.3242 2.07255 86.3242 2.29906V27.9335C86.3242 28.1598 86.5056 28.3435 86.7295 28.3435H90.1382C90.2917 28.3435 90.4078 28.2644 90.4938 28.1262C90.5786 27.9882 90.7007 26.9439 90.7007 26.9439C90.7007 26.9439 92.7095 28.8477 96.5122 28.8477C100.977 28.8477 103.537 26.5831 103.537 18.6815C103.537 10.7799 99.448 9.74734 96.685 9.74734Z" fill="#1E1E1E"/>
<path d="M42.9153 10.2825H39.2405L39.235 5.42789C39.235 5.24392 39.1402 5.15222 38.9278 5.15222H33.9203C33.7254 5.15222 33.621 5.23788 33.621 5.42502V10.4417C33.621 10.4417 31.1115 11.0477 30.9416 11.0963C30.7729 11.1454 30.6484 11.3012 30.6484 11.4872V14.6397C30.6484 14.8666 30.8295 15.0494 31.0535 15.0494H33.621C33.621 15.0494 33.621 18.3465 33.621 22.6336C33.621 28.2668 37.5724 28.8203 40.2386 28.8203C41.4571 28.8203 42.9145 28.4287 43.1551 28.3401C43.3005 28.2865 43.3851 28.1358 43.3851 27.9722L43.3894 24.5044C43.3894 24.2784 43.1982 24.095 42.9832 24.095C42.7687 24.095 42.2211 24.1824 41.6572 24.1824C39.8519 24.1824 39.2405 23.3431 39.2405 22.2568C39.2405 21.171 39.2402 15.0494 39.2402 15.0494H42.9153C43.1393 15.0494 43.3207 14.8666 43.3207 14.6397V10.691C43.3207 10.4647 43.1393 10.2825 42.9153 10.2825Z" fill="#1E1E1E"/>
</g>
<defs>
<clipPath id="clip0_162_70">
<rect width="104" height="29" fill="white"/>
</clipPath>
</defs>
</svg>
