<svg width="62" height="62" viewBox="0 0 62 62" fill="none" xmlns="http://www.w3.org/2000/svg">
<path d="M31 0C13.8725 0 0 13.8725 0 31C0 44.7175 8.87375 56.3038 21.1962 60.4113C22.7462 60.6825 23.3275 59.7525 23.3275 58.9388C23.3275 58.2025 23.2888 55.7613 23.2888 53.165C15.5 54.5988 13.485 51.2662 12.865 49.5225C12.5162 48.6312 11.005 45.88 9.6875 45.1437C8.6025 44.5625 7.0525 43.1287 9.64875 43.09C12.09 43.0512 13.8338 45.3375 14.415 46.2675C17.205 50.9562 21.6613 49.6388 23.4438 48.825C23.715 46.81 24.5287 45.4537 25.42 44.6787C18.5225 43.9037 11.315 41.23 11.315 29.3725C11.315 26.0012 12.5163 23.2112 14.4925 21.0412C14.1825 20.2662 13.0975 17.0887 14.8025 12.8262C14.8025 12.8262 17.3988 12.0125 23.3275 16.0038C25.8075 15.3063 28.4425 14.9575 31.0775 14.9575C33.7125 14.9575 36.3475 15.3063 38.8275 16.0038C44.7563 11.9738 47.3525 12.8262 47.3525 12.8262C49.0575 17.0887 47.9725 20.2662 47.6625 21.0412C49.6388 23.2112 50.84 25.9625 50.84 29.3725C50.84 41.2687 43.5938 43.9037 36.6963 44.6787C37.82 45.6475 38.7888 47.5075 38.7888 50.4138C38.7888 54.56 38.75 57.8925 38.75 58.9388C38.75 59.7525 39.3313 60.7213 40.8813 60.4113C47.0363 58.3352 52.3849 54.3805 56.1736 49.1041C59.9622 43.8277 62.0001 37.4957 62 31C62 13.8725 48.1275 0 31 0Z" fill="black"/>
</svg>
