<svg width="128" height="128" viewBox="0 0 128 128" fill="none" xmlns="http://www.w3.org/2000/svg">
<rect x="1" y="1" width="126" height="126" rx="19" stroke="black" stroke-width="0"/>
<path d="M28.043 104.711L20 14.5H108.378L100.327 104.697L64.135 114.73L28.043 104.711Z" fill="#E44D26"/>
<path d="M64.1895 107.061L93.4335 98.953L100.314 21.877H64.1895V107.061Z" fill="#F16529"/>
<path d="M64.1893 55.3349H49.5483L48.5383 44.0039H64.1893V32.9399H36.4463L36.7103 35.9089L39.4303 66.3979H64.1893V55.3349ZM64.1893 84.0679L64.1403 84.0809L51.8193 80.7529L51.0313 71.9299H39.9243L41.4743 89.3019L64.1383 95.5939L64.1893 95.5789V84.0679Z" fill="#EBEBEB"/>
<path d="M64.1514 55.3349V66.3979H77.7754L76.4914 80.7469L64.1514 84.0779V95.5879L86.8334 89.3019L86.9994 87.4319L89.5994 58.3049L89.8694 55.3349H86.8874H64.1514ZM64.1514 32.9399V44.0039H90.8764L91.0974 41.5169L91.6024 35.9089L91.8674 32.9399H64.1514Z" fill="white"/>
</svg>
