<svg width="69" height="69" viewBox="0 0 128 129" fill="none" xmlns="http://www.w3.org/2000/svg">
<rect x="1" y="1.5" width="105" height="105" rx="19" stroke="black" stroke-width="0"/>
<path d="M1.4082 1.9082H126.592V127.093H1.4082V1.9082Z" fill="#F0DB4F"/>
<path d="M116.347 97.2359C115.43 91.5249 111.706 86.7279 100.675 82.2549C96.8435 80.4939 92.5715 79.2329 91.2985 76.3289C90.8465 74.6389 90.7865 73.6869 91.0725 72.6639C91.8935 69.3439 95.8565 68.3089 98.9975 69.2609C101.02 69.9389 102.935 71.4979 104.09 73.9849C109.492 70.4869 109.481 70.5099 113.253 68.1059C111.872 65.9649 111.135 64.9769 110.231 64.0609C106.982 60.4319 102.555 58.5629 95.4755 58.7059L91.7875 59.1829C88.2535 60.0759 84.8855 61.9309 82.9105 64.4179C76.9845 71.1419 78.6745 82.9099 85.8855 87.7529C92.9895 93.0849 103.425 94.2979 104.758 99.2839C106.055 105.388 100.272 107.364 94.5245 106.662C90.2885 105.781 87.9325 103.628 85.3855 99.7129C80.6975 102.426 80.6975 102.426 75.8775 105.198C77.0205 107.697 78.2215 108.828 80.1375 110.993C89.2055 120.191 111.897 119.739 115.967 105.817C116.132 105.339 117.228 102.151 116.347 97.2359ZM69.4625 59.4429H57.7535L57.7055 89.7149C57.7055 96.1529 58.0385 102.055 56.9915 103.864C55.2785 107.422 50.8395 106.981 48.8165 106.291C46.7575 105.279 45.7105 103.84 44.4975 101.806C44.1645 101.222 43.9145 100.77 43.8305 100.735L34.3105 106.565C35.8935 109.814 38.2255 112.634 41.2125 114.466C45.6745 117.144 51.6715 117.965 57.9435 116.525C62.0255 115.336 65.5475 112.873 67.3915 109.124C70.0575 104.209 69.4855 98.2599 69.4615 91.6799C69.5215 80.9449 69.4625 70.2119 69.4625 59.4429Z" fill="#323330"/>
</svg>
