<svg width="17" height="19.34" viewBox="0 0 33 36" fill="none" xmlns="http://www.w3.org/2000/svg">
<path d="M2.83336 21.6686L15.7929 8.70906C16.1834 8.31854 16.8166 8.31854 17.2071 8.70906L30.1666 21.6686C30.6031 22.1051 30.5449 22.8219 30.0284 23.16C27.6486 24.7178 21.3668 28.502 16.5 28.502C11.6332 28.502 5.35145 24.7178 2.97157 23.16C2.45509 22.8219 2.39687 22.1051 2.83336 21.6686Z" fill="white" stroke="black" stroke-width="2"/>
<path d="M6.3375 14.6287L15.7941 5.20358C16.1843 4.81462 16.8157 4.81463 17.2059 5.20358L26.6625 14.6287C27.1006 15.0654 27.0405 15.7846 26.5196 16.1183C24.5583 17.3746 20.0367 20 16.5 20C12.9633 20 8.4417 17.3746 6.48043 16.1183C5.95953 15.7846 5.89935 15.0654 6.3375 14.6287Z" fill="white" stroke="black" stroke-width="2"/>
<path d="M8.70711 9.79289L15.7929 2.70711C16.1834 2.31658 16.8166 2.31658 17.2071 2.70711L24.2929 9.79289C24.9229 10.4229 24.4767 11.5 23.5858 11.5H9.41421C8.52331 11.5 8.07714 10.4229 8.70711 9.79289Z" fill="white" stroke="black" stroke-width="2"/>
<path d="M15 35V30C15 29.4477 15.4477 29 16 29H17C17.5523 29 18 29.4477 18 30V35C18 35.5523 17.5523 36 17 36H16C15.4477 36 15 35.5523 15 35Z" fill="black"/>
</svg>
