<svg width="15" height="15" viewBox="0 0 10 12" fill="none" xmlns="http://www.w3.org/2000/svg">
<path d="M7.25 6H8.125C8.22446 6 8.31984 6.03951 8.39017 6.10983C8.46049 6.18016 8.5 6.27554 8.5 6.375V10.625C8.5 10.7245 8.46049 10.8198 8.39017 10.8902C8.31984 10.9605 8.22446 11 8.125 11H1.375C1.27554 11 1.18016 10.9605 1.10983 10.8902C1.03951 10.8198 1 10.7245 1 10.625V6.375C1 6.27554 1.03951 6.18016 1.10983 6.10983C1.18016 6.03951 1.27554 6 1.375 6H2.25M7.25 6V3.5C7.25 2.66688 6.75 1 4.75 1C2.75 1 2.25 2.66688 2.25 3.5V6M7.25 6H2.25" stroke="black" stroke-width="1.5" stroke-linecap="round" stroke-linejoin="round"/>
</svg>
