<svg width="42" height="42" viewBox="0 0 42 42" fill="none" xmlns="http://www.w3.org/2000/svg">
<rect width="42" height="42" rx="5" fill="white"/>
<path d="M22.5186 20.5582C22.5186 29.7482 15.2767 32.9647 9.69006 33H4C4 28.405 6.34499 25.1532 6.82779 21.053C7.20712 17.8719 6.13808 14.1959 4 9H8.41411C8.44859 9 8.48308 9 8.51756 9H8.72447C16.6561 9.07069 22.5186 12.676 22.5186 20.5582ZM9.00035 31.7629C9.48315 32.2577 10.1384 32.5052 10.8626 32.5052C13.7938 32.5052 18.001 28.405 18.001 20.5582C18.001 12.8527 16.4147 9.49485 8.79344 9.38881C9.03484 11.4389 7.9658 16.9529 7.31058 20.9823C6.65536 24.8704 7.37955 28.7231 9.00035 31.7629ZM24.6914 27.5C25.1397 29.8328 25.9574 31.2327 26.9919 33H21.8191C21.8191 28.405 22.9916 24.8704 24.4055 21.0884C25.7849 17.2356 28.6817 14.2312 26.7505 9H31.0266C31.1993 9.35346 31.3027 9.67158 31.3027 10.0604C31.6131 19.109 40.4758 28.3697 38.786 33H34.165C34.6478 30.6672 34.7824 29.4087 34.6789 27.5H29H27H24.6914ZM24.8194 21.0177C24.1986 22.7143 24.1641 24.4816 24.44 26.2489H26.9919H30.8026H34.6133C34.1305 20.7349 31.751 16.5287 31.0266 11.5096C29.9577 14.3373 26.0263 17.6598 24.8194 21.0177Z" fill="#050505"/>
</svg>
