<svg width="128" height="129" viewBox="0 0 128 129" fill="none" xmlns="http://www.w3.org/2000/svg">
<rect x="1" y="1.5" width="126" height="126" rx="19" stroke="black" stroke-width="0"/>
<path fill-rule="evenodd" clip-rule="evenodd" d="M80.1797 38.6035C77.8696 31.4142 74.1641 25.0513 68.9425 19.576C67.6224 18.191 66.1551 16.9222 65.2343 15.1994C64.6524 14.1087 64.0979 13.003 63.531 11.9053L63.1709 11L63.0706 11.3564C63.0236 13.1476 62.0087 14.3614 60.7455 15.4955C59.3225 16.7706 57.9989 18.1556 56.6328 19.4936L52.4314 25.0167L49.0346 31.2608L46.7627 37.3922L46.6943 37.4871C45.4444 41.5916 44.8278 45.8122 44.5253 50.0736C44.4109 51.6759 44.5422 53.3003 44.6318 54.9105C44.7604 57.2124 45.1605 59.4743 45.7602 61.7026C47.9399 69.7945 52.3639 76.5058 58.4132 82.209C59.5363 83.2686 60.7508 84.2324 61.9227 85.2397L62.4416 87.0201L62.9242 89.7831L63.1549 92.6675C63.1522 93.2527 63.1283 93.8405 63.1629 94.424C63.1726 94.5738 63.3678 94.7122 63.4778 94.8558L64.4572 95.1998L65.4765 95.5962L65.3017 93.0328L65.2937 90.5075L65.6459 86.661L65.9014 85.824L66.6333 84.5286C67.5364 83.8032 68.5042 83.1435 69.3266 82.3358C70.8143 80.8754 72.2994 79.3946 73.6309 77.7942C75.3633 75.7197 76.843 73.4468 78.039 71.0234C78.8366 69.3981 79.5888 67.74 80.2107 66.042C80.7589 64.5453 81.0987 62.9714 81.5307 61.4312L81.6443 61.0987C82.5359 56.9419 82.6858 52.7426 82.3584 48.5166C82.095 45.1109 81.2939 41.8239 80.1797 38.6035ZM62.5259 83.1817C62.6625 82.498 62.832 81.8179 62.9553 81.1317C62.832 81.8179 62.6634 82.498 62.5259 83.1817ZM101.179 99.549C100.446 98.1453 99.3708 97.0795 97.9496 96.38C96.7591 95.7948 95.479 95.5377 94.1625 95.5004C93.176 95.4721 92.186 95.5226 91.1977 95.535C90.3204 95.5457 89.4421 95.5607 88.5647 95.5527C87.533 95.5421 86.5013 95.5111 85.4696 95.4818C85.2984 95.4765 85.1768 95.5111 85.097 95.6849C84.9719 95.9553 84.8237 96.216 84.6703 96.5121L84.8424 96.5671C85.3542 96.6576 85.8688 96.7347 86.378 96.8367C87.0327 96.9669 87.3272 97.3429 87.3574 97.8944C87.4017 98.68 87.4195 99.4674 87.4168 100.255C87.4035 103.371 87.3813 106.486 87.3582 109.601C87.3565 109.807 87.3529 110.022 87.297 110.215C87.2323 110.438 87.1622 110.727 86.9954 110.837C86.6953 111.03 86.3586 111.158 86.0063 111.214C85.5086 111.296 85.4252 111.318 85.27 111.807L85.2025 112.052C85.128 112.319 85.1679 112.371 85.4465 112.374C87.0451 112.392 88.6428 112.426 90.2405 112.421C91.6981 112.416 93.1556 112.504 94.6078 112.23C95.9802 111.972 97.2612 111.52 98.4304 110.755C99.9474 109.761 101.039 108.433 101.614 106.699C102.079 105.299 102.183 103.871 102.025 102.407C101.927 101.409 101.639 100.439 101.179 99.549ZM98.3781 108.115C97.5229 109.706 96.2472 110.768 94.4242 111.048C93.2825 111.223 92.139 111.173 91.0505 110.741C90.3612 110.468 90.1048 109.873 90.0835 109.17C90.064 108.481 90.0542 107.792 90.0542 107.102C90.0507 104.678 90.0507 102.253 90.0542 99.83C90.056 99.0666 90.0693 98.3014 90.0817 97.5371C90.0906 96.9997 90.2033 96.8198 90.7275 96.7764C93.0305 96.5831 95.2279 96.8313 97.0527 98.4512C98.1811 99.4532 98.8234 100.731 99.0904 102.198C99.2013 102.81 99.235 103.436 99.3042 104.057C99.2484 105.474 99.0567 106.853 98.3781 108.115ZM117.708 105.49C117.253 104.385 116.393 103.692 115.311 103.249C114.942 103.097 114.562 102.972 114.164 102.825L114.303 102.737C114.733 102.461 115.212 102.238 115.583 101.899C116.484 101.073 116.859 100.035 116.683 98.8015C116.516 97.6284 115.931 96.7675 114.885 96.2089C113.936 95.7035 112.912 95.519 111.853 95.5199C110.02 95.5217 108.186 95.5492 106.353 95.5527C105.722 95.5536 105.09 95.5066 104.458 95.4978C104.336 95.496 104.154 95.527 104.102 95.6086C103.957 95.8303 103.861 96.0856 103.758 96.3321C103.699 96.4758 103.758 96.5547 103.922 96.576C104.363 96.6363 104.803 96.7116 105.244 96.7773C105.855 96.8686 106.15 97.1859 106.187 97.8004L106.195 98.1648C106.196 100.076 106.202 101.986 106.195 103.897C106.183 105.805 106.165 107.714 106.14 109.622C106.138 109.862 106.105 110.103 106.07 110.342C106.018 110.702 105.825 110.95 105.456 111.028L104.412 111.234C104.289 111.259 104.111 111.255 104.06 111.331C103.868 111.618 103.714 111.931 103.735 112.308L103.843 112.338L107.35 112.424L108.053 112.421C109.267 112.407 110.482 112.431 111.694 112.369C113.006 112.303 114.238 111.914 115.377 111.244C116.59 110.531 117.523 109.59 117.855 108.175C118.068 107.271 118.069 106.362 117.708 105.49ZM108.798 97.3491C108.804 96.9651 108.973 96.7985 109.354 96.7888C110.294 96.7631 111.227 96.7684 112.134 97.0919C113.307 97.5105 114.028 98.5213 114.014 99.7564C114.008 100.231 114.015 100.701 113.841 101.157C113.496 102.054 112.834 102.527 111.895 102.62C111.405 102.669 110.911 102.675 110.475 102.698L109.018 102.634C108.825 102.627 108.741 102.542 108.741 102.343L108.798 97.3491ZM114.836 109.314C114.367 110.335 113.511 110.871 112.441 111.057C111.587 111.204 110.713 111.165 109.875 110.945C109.249 110.784 108.993 110.281 108.868 109.724C108.784 109.35 108.798 108.906 108.791 108.518C108.78 107.918 108.788 106.674 108.788 106.674H108.776C108.776 105.788 108.779 105.02 108.773 104.169C108.772 103.986 108.804 103.895 109.028 103.902C109.825 103.926 110.624 103.939 111.421 103.97C112.133 103.997 112.8 104.208 113.427 104.546C114.382 105.061 114.957 105.848 115.115 106.93C115.235 107.75 115.184 108.557 114.836 109.314ZM27.3773 110.27L27.3941 105.449C27.3968 104.724 27.3045 104.013 27.0668 103.324C26.4112 101.43 24.6032 100.567 22.7208 101.247C21.8647 101.556 21.0973 102.025 20.3646 102.557C19.9379 102.868 19.9379 102.868 19.6291 102.425C18.7553 101.173 17.5071 100.745 16.054 101.207C15.1146 101.505 14.2931 102.015 13.5151 102.607C13.4424 102.662 13.296 102.723 13.2525 102.69C13.1798 102.636 13.1292 102.508 13.131 102.411L13.1842 101.555C13.1886 101.375 13.154 101.194 13.1363 101.005C12.785 101.126 12.5047 101.248 12.211 101.319C11.3035 101.54 10.3898 101.744 9.47693 101.953C9.25603 102.003 9.02272 102.07 9.00143 102.323C8.97925 102.573 9.21966 102.614 9.40596 102.689C9.79807 102.847 10.1875 103.014 10.5752 103.184C10.9008 103.328 11.0223 103.588 11.0205 103.937C11.0143 105.431 11.0241 106.924 11.0152 108.418C11.0116 109.025 10.9833 109.631 10.9558 110.239C10.9309 110.777 10.7473 111.002 10.2257 111.138C9.94888 111.211 9.66766 111.259 9.3891 111.325C9.32789 111.339 9.22321 111.378 9.22232 111.408C9.21079 111.672 9.1966 111.941 9.24095 112.198C9.24982 112.244 9.52838 112.244 9.68274 112.261L9.78653 112.255C10.8617 112.239 11.9369 112.222 13.013 112.211C13.5834 112.205 14.1529 112.21 14.7722 112.21L14.8387 111.35C14.4838 111.285 14.1671 111.236 13.8549 111.168C13.3678 111.062 13.1603 110.804 13.1478 110.312L13.139 109.609C13.1336 107.785 13.1265 105.962 13.1265 104.138C13.1265 103.873 13.2366 103.663 13.4699 103.504C13.964 103.171 14.4856 102.906 15.0631 102.758C16.2802 102.447 17.3359 102.879 17.8043 103.914C17.9525 104.24 18.0687 104.601 18.1015 104.956C18.2736 106.784 18.1991 108.614 18.0953 110.443C18.0731 110.837 17.8877 111.036 17.4983 111.133L16.5828 111.326C16.5091 111.345 16.4018 111.295 16.3965 111.356C16.3761 111.609 16.3876 111.996 16.3876 111.996H16.6058L19.3932 112.088C20.157 112.086 20.9217 112.178 21.6846 112.198C21.8212 112.2 21.9428 112.221 21.9507 112.063C21.9595 111.818 21.9562 111.572 21.941 111.328L21.7955 111.302L21.0104 111.126C20.4808 111.001 20.298 110.799 20.2963 110.264C20.29 108.943 20.3078 107.624 20.2963 106.305C20.2895 105.55 20.2614 104.795 20.212 104.043C20.1987 103.842 20.2297 103.711 20.3894 103.598C20.8522 103.261 21.373 103.01 21.9259 102.858C23.6425 102.406 25.0477 103.347 25.1364 105.116C25.2233 106.822 25.187 108.534 25.1736 110.243C25.1692 110.838 24.9723 111.018 24.3859 111.178L24.1836 111.23C23.583 111.374 23.5884 111.374 23.6238 112.011C23.6354 112.211 23.6904 112.262 23.9033 112.257C25.1266 112.229 26.35 112.222 27.5733 112.212C28.0737 112.207 28.574 112.212 29.1187 112.212L29.2296 111.382C28.7514 111.255 28.3105 111.161 27.8847 111.022C27.5086 110.894 27.3755 110.667 27.3773 110.27ZM69.5058 102.963C70.0097 102.495 70.0132 101.878 69.8722 101.193C69.473 101.611 69.0259 101.803 68.5158 101.839C67.8318 101.888 67.1603 101.829 66.5233 101.556C64.8005 100.817 63.1043 100.869 61.4135 101.681C59.9914 102.362 59.1167 103.423 59.0289 105.032C58.973 106.063 59.1664 107.04 59.8548 107.86C60.2673 108.351 60.7969 108.669 61.394 108.889C61.6512 108.984 61.6707 109.107 61.4552 109.271C61.296 109.391 61.1311 109.503 60.961 109.608C60.6007 109.834 60.2381 110.057 59.8734 110.276C59.6596 110.406 59.5869 110.57 59.657 110.823C59.8619 111.566 60.3897 111.995 61.0498 112.308L61.2902 112.476L61.0799 112.686C60.4332 113.21 59.7608 113.705 59.1416 114.261C58.6217 114.728 58.454 115.354 58.6111 116.045C58.9278 117.424 59.8424 118.277 61.1402 118.669C63.4086 119.355 65.5386 118.961 67.4805 117.618C68.632 116.821 69.4579 115.783 69.709 114.356C69.9902 112.752 69.0986 111.36 67.5027 111.072C66.447 110.881 65.3665 110.826 64.2984 110.703C63.7998 110.647 63.2942 110.613 62.8089 110.499C62.3964 110.401 62.1915 110.065 62.2296 109.737C62.2678 109.414 62.6111 109.114 63.0041 109.083C63.7954 109.019 64.5707 108.896 65.3 108.562C67.2321 107.679 68.129 106.133 67.9046 104.051C67.8753 103.77 67.8114 103.494 67.7537 103.168C68.3721 103.271 69.0046 103.428 69.5058 102.963ZM63.6428 112.731C64.4288 112.754 65.323 112.803 66.1871 113.056C66.9473 113.278 67.5728 113.666 67.7573 114.514C67.98 115.539 67.4867 116.559 66.494 117.107C65.5643 117.62 64.5548 117.662 63.531 117.557C62.6546 117.466 61.8659 117.163 61.2343 116.516C60.4022 115.664 60.3977 114.484 61.2307 113.635C61.975 112.876 62.3733 112.719 63.6428 112.731ZM65.6096 106.558C65.1518 108.022 63.8193 108.224 62.7752 107.756C61.8854 107.358 61.4978 106.574 61.2946 105.68C61.2156 105.335 61.197 104.978 61.1509 104.626C61.1695 104.122 61.2529 103.637 61.4703 103.183C62.1365 101.785 63.7732 101.869 64.679 102.502C65.0675 102.773 65.3381 103.142 65.5075 103.579C65.8847 104.53 65.9208 105.583 65.6096 106.558ZM57.2972 111.225C56.9803 111.176 56.667 111.107 56.3595 111.016C55.8202 110.851 55.7545 110.75 55.7483 110.179C55.7323 108.591 55.7217 107.002 55.704 105.414C55.6951 104.699 55.6099 103.994 55.3908 103.311C54.8142 101.511 53.0479 100.545 51.2808 101.076C50.3014 101.371 49.4604 101.92 48.6771 102.565L48.3914 102.784L48.3923 102.49C48.4109 102.152 48.4473 101.814 48.4446 101.477C48.4429 101.3 48.3754 101.123 48.3426 100.968C47.6746 101.169 47.0758 101.371 46.4646 101.525C45.8516 101.68 45.2262 101.784 44.6061 101.91C44.2982 101.972 44.072 102.158 44.0773 102.37C44.0853 102.669 44.3328 102.727 44.5493 102.816C44.9414 102.977 45.3326 103.139 45.7203 103.311C45.9971 103.434 46.1097 103.663 46.1071 103.96C46.0876 106.025 46.0751 108.091 46.045 110.157C46.0361 110.81 45.8711 110.982 45.2288 111.126L44.9485 111.181C44.3541 111.283 44.3373 111.307 44.3781 111.934L44.3816 112.038C44.3745 112.279 44.4801 112.357 44.7285 112.354C46.3076 112.336 47.8875 112.327 49.4666 112.333C50.1435 112.336 50.2162 112.283 50.202 111.588L50.1701 111.289C49.7833 111.224 49.4134 111.177 49.0514 111.097C48.6726 111.013 48.5369 110.858 48.5014 110.473C48.4686 110.121 48.4579 109.764 48.4544 109.409C48.4367 107.785 48.4225 106.162 48.4145 104.539C48.4127 104.13 48.4881 103.751 48.8642 103.488C49.4179 103.092 50.0706 102.858 50.7494 102.812C52.1581 102.715 53.2289 103.55 53.3052 104.953C53.3992 106.685 53.3708 108.423 53.393 110.158C53.3948 110.288 53.3717 110.418 53.354 110.547C53.3203 110.8 53.1961 110.991 52.9388 111.056C52.6877 111.122 52.4331 111.181 52.1768 111.22C51.7944 111.276 51.7864 111.274 51.7571 111.659L51.7669 111.919C51.8122 112.368 51.813 112.354 52.2672 112.35C53.7949 112.338 55.3216 112.33 56.8483 112.331C57.4871 112.333 57.5323 112.303 57.5376 111.645L57.5359 111.489C57.5456 111.321 57.4702 111.252 57.2972 111.225ZM78.6343 101.185C77.033 100.794 75.5143 101.085 74.0718 101.83C72.6702 102.555 71.7334 103.675 71.3767 105.221C71.0166 106.784 71.1887 108.309 71.8797 109.761C72.3295 110.703 73.0215 111.432 73.9636 111.906C76.169 113.016 78.8667 112.512 80.5966 111.027C81.9619 109.856 82.4631 108.296 82.4933 106.366C82.4746 106.173 82.456 105.8 82.4046 105.431C82.1145 103.33 80.6587 101.68 78.6343 101.185ZM79.847 109.303C79.4221 110.975 77.9752 111.718 76.3429 111.143C75.5098 110.851 74.8871 110.291 74.4684 109.535C73.505 107.797 73.3195 105.949 73.8678 104.053C74.2333 102.791 75.273 102.1 76.5096 102.187C77.615 102.264 78.4649 102.794 79.0885 103.693C79.7459 104.642 79.9996 105.721 80.067 106.854C80.0785 107.036 80.0688 107.218 80.0688 107.401L80.1468 107.409C80.0493 108.042 80.0031 108.686 79.847 109.303ZM38.3616 101.157C36.677 100.773 35.0988 101.153 33.6368 102.009C32.3726 102.748 31.5556 103.853 31.2425 105.296C30.9488 106.645 31.0686 107.971 31.5467 109.263C31.8377 110.05 32.2786 110.742 32.9253 111.282C34.2871 112.418 35.8785 112.706 37.5721 112.389C39.0057 112.12 40.2654 111.484 41.1809 110.293C42.0378 109.179 42.3643 107.901 42.398 106.515C42.3474 106.076 42.335 105.629 42.2419 105.201C41.7788 103.063 40.528 101.651 38.3616 101.157ZM39.7358 109.297C39.325 110.961 37.8551 111.722 36.2343 111.148C35.1937 110.778 34.5159 110.016 34.0875 109.04C33.4008 107.472 33.2607 105.839 33.7051 104.185C34.0458 102.919 35.0722 101.987 36.6433 102.211C37.6076 102.347 38.3598 102.839 38.9205 103.622C39.6781 104.678 39.9274 105.888 39.962 107.159V107.418L40.0258 107.428C39.9327 108.052 39.8866 108.687 39.7358 109.297Z" fill="#4FAA41"/>
</svg>
