<svg width="128" height="129" viewBox="0 0 128 129" fill="none" xmlns="http://www.w3.org/2000/svg">
<rect x="1" y="1.5" width="126" height="126" rx="19" stroke="black" stroke-width="0"/>
<path d="M11.0008 87.1861H14.4794V73.5829L19.865 85.442C20.5 86.8775 21.3697 87.3848 23.0759 87.3848C24.7822 87.3848 25.6188 86.8775 26.2539 85.442L31.6394 73.5829V87.1861H35.118V73.6056C35.118 72.2807 34.5829 71.6392 33.4786 71.3089C30.8358 70.4922 29.0627 71.199 28.2599 72.9658L22.9752 84.6697L17.8581 72.9649C17.0884 71.199 15.2822 70.4922 12.6394 71.308C11.5352 71.6392 11 72.2799 11 73.6047L11.0008 87.1861ZM38.0115 76.1127H41.4892V83.6073C41.457 84.014 41.6213 84.9699 43.5266 85.0001C44.4987 85.0152 51.0307 85.0001 51.0917 85.0001V76.0758H54.5779C54.594 76.0758 54.5745 88.246 54.5745 88.2963C54.5931 91.2982 50.8139 91.9497 49.0713 92H38.0868V89.6823C38.1055 89.6823 49.0637 89.6849 49.0908 89.6815C51.3305 89.4476 51.0654 88.3458 51.0646 87.9751V87.0712H43.6714C40.2317 87.0402 38.0403 85.5535 38.0123 83.843C38.0106 83.6862 38.0877 76.1882 38.0115 76.1127ZM57.2596 87.1861H67.2618C68.4329 87.1861 69.571 86.9438 70.4737 86.5245C71.9784 85.8403 72.7142 84.9129 72.7142 83.697V81.1798C72.7142 80.1862 71.8785 79.258 70.2391 78.6408C69.3695 78.3088 68.2983 78.1335 67.261 78.1335H63.0457C61.6409 78.1335 60.9719 77.7143 60.8051 76.7869C60.7721 76.6762 60.7721 76.5881 60.7721 76.4775V74.9094C60.7721 74.8214 60.7721 74.7325 60.8051 74.6227C60.9719 73.9158 61.3403 73.7171 62.5783 73.6064L62.9128 73.5846H72.848V71.2887H63.0804C61.6756 71.2887 60.9398 71.3768 60.2708 71.5755C58.197 72.2161 57.2927 73.2316 57.2927 74.9983V77.0074C57.2927 78.5536 59.0667 79.8785 62.0431 80.1879C62.3784 80.2088 62.7121 80.2323 63.0465 80.2323H66.6598C66.7936 80.2323 66.9273 80.2323 67.0281 80.2533C68.1323 80.3413 68.5997 80.5409 68.9351 80.9375C69.021 81.0161 69.0892 81.1117 69.1352 81.2182C69.1811 81.3247 69.2038 81.4397 69.2018 81.5555V83.5654C69.2018 83.8077 69.035 84.1171 68.7005 84.3821C68.3999 84.6471 67.8978 84.824 67.2288 84.8685L66.8605 84.8903H57.2596V87.1861ZM94.4172 83.1898C94.4172 85.5518 96.1904 86.8767 99.7689 87.1425C100.103 87.1643 100.438 87.1861 100.772 87.1861H109.838V84.8903H100.706C98.6655 84.8903 97.8967 84.3821 97.8967 83.1671V71.2871H94.4181L94.4172 83.1898ZM74.9345 83.3088V75.1207C74.9345 73.0412 76.4096 71.7793 79.3259 71.381C79.6367 71.3369 79.9502 71.3147 80.2641 71.3147H86.8682C87.2035 71.3147 87.505 71.3365 87.8394 71.381C90.7558 71.7793 92.2317 73.0404 92.2317 75.1207V83.3088C92.2317 84.9976 91.6051 85.8998 90.1613 86.4885L93.5891 89.5515H89.5491L86.7767 87.0729L83.9858 87.2481H80.2641C79.5728 87.2438 78.8853 87.147 78.22 86.9605C76.0074 86.3635 74.9345 85.2122 74.9345 83.3088ZM78.69 83.1101C78.69 83.2208 78.723 83.3323 78.7569 83.4648C78.9576 84.4165 79.8636 84.9473 81.2371 84.9473H84.3973L81.4945 82.3521H85.5345L88.0655 84.6161C88.533 84.3687 88.8395 83.993 88.947 83.5092C88.9801 83.3985 88.9801 83.2879 88.9801 83.1772V75.322C88.9801 75.2339 88.9801 75.1224 88.947 75.0117C88.7455 74.1263 87.8403 73.6181 86.4998 73.6181H81.2363C79.6951 73.6181 78.6891 74.2822 78.6891 75.322V83.1101H78.69ZM112.898 67.476C110.76 67.4182 109.127 67.6152 107.729 68.198C107.332 68.364 106.7 68.3682 106.635 68.8604C106.853 69.0877 106.887 69.4256 107.061 69.704C107.394 70.2381 107.957 70.9542 108.459 71.329C109.007 71.739 109.573 72.1784 110.162 72.5339C111.208 73.1662 112.377 73.5267 113.385 74.159C113.979 74.5329 114.568 75.0025 115.148 75.4243C115.435 75.6314 115.627 75.9559 116 76.0859V76.0263C115.804 75.7798 115.754 75.4411 115.574 75.1828L114.783 74.3996C114.01 73.3834 113.029 72.492 111.985 71.7508C111.154 71.1596 109.293 70.3605 108.945 69.4021L108.884 69.3426C109.474 69.2763 110.165 69.065 110.708 68.9208C111.623 68.6776 112.44 68.7405 113.384 68.499L114.661 68.1368V67.897C114.184 67.4123 113.843 66.77 113.323 66.3315C111.963 65.1835 110.476 64.0365 108.945 63.0789C108.097 62.5489 107.048 62.2043 106.148 61.7549C105.846 61.6031 105.314 61.5251 105.114 61.2727C104.64 60.6765 104.384 59.921 104.019 59.2259C103.24 57.7242 102.509 56.1979 101.83 54.6493C101.369 53.6054 101.068 52.5757 100.493 51.6391C97.7315 47.1438 94.7593 44.4304 90.1554 41.7639C89.1757 41.1962 87.9961 40.9732 86.7505 40.6805L84.7436 40.5598C84.3363 40.3913 83.9112 39.8965 83.5276 39.6567C82.0017 38.7025 78.0896 36.6272 76.96 39.3565C76.247 41.0788 78.0269 42.7592 78.6629 43.6321C79.1091 44.2442 79.6816 44.9301 80.0008 45.6185C80.2108 46.0713 80.2464 46.525 80.4267 47.0038C80.8679 48.1827 81.2532 49.4665 81.8248 50.5557C82.1135 51.1074 82.4328 51.6885 82.7977 52.1816C83.0213 52.4834 83.4057 52.6176 83.4658 53.0847C83.0907 53.6045 83.0687 54.4129 82.8578 55.0711C81.9077 58.0386 82.2659 61.7272 83.6487 63.9233C84.073 64.5983 85.0722 66.0439 86.4456 65.4888C87.6472 65.0041 87.3796 63.5023 87.7234 62.1766C87.8013 61.8773 87.7531 61.6559 87.9055 61.4547V61.5151L89.0004 63.6826C89.8108 64.9748 91.2477 66.3239 92.4663 67.2354C93.098 67.7075 93.5959 68.525 94.4122 68.8009V68.7397H94.352C94.1928 68.4957 93.9464 68.395 93.7432 68.198C93.2673 67.736 92.7381 67.1624 92.3452 66.6325C91.2367 65.1433 90.2579 63.5124 89.3653 61.8152C88.9394 61.0052 88.5694 60.1114 88.2103 59.2863C88.0715 58.9685 88.0732 58.4872 87.7853 58.3237C87.3907 58.9274 86.8123 59.4163 86.5075 60.1298C86.0214 61.2702 85.9587 62.6613 85.7784 64.1035L85.6564 64.1631C84.8088 63.961 84.5116 63.0973 84.1966 62.3569C83.4006 60.4845 83.2524 57.4684 83.9536 55.3126C84.1348 54.7541 84.9536 52.9974 84.6217 52.4818C84.4633 51.9678 83.9409 51.6709 83.6496 51.2768C83.2674 50.7495 82.9413 50.1844 82.6766 49.5906C82.0246 48.1307 81.7206 46.4914 81.0356 45.0148C80.707 44.3088 80.1532 43.5952 79.6976 42.968C79.1938 42.272 78.629 41.7605 78.2378 40.9204C78.0989 40.6218 77.9101 40.1431 78.1159 39.8362C78.1811 39.629 78.2751 39.5427 78.4817 39.4748C78.8339 39.2056 79.8162 39.5645 80.1837 39.7154C81.1592 40.1171 81.973 40.4986 82.7994 41.0403C83.1957 41.301 83.5962 41.8041 84.0764 41.9433H84.6234C85.4795 42.1379 86.4389 42.0029 87.2382 42.2435C88.6524 42.6695 89.9191 43.3311 91.0691 44.0505C94.5739 46.2424 97.4386 49.3617 99.3997 53.083C99.7147 53.6825 99.8519 54.2535 100.129 54.8891C100.689 56.1704 101.396 57.4894 101.953 58.7429C102.509 59.9932 103.052 61.2551 103.839 62.2957C104.252 62.8424 105.849 63.1359 106.574 63.4394C107.083 63.6524 107.917 63.8746 108.398 64.1614C109.319 64.7115 110.211 65.3663 111.074 65.9684C111.505 66.2719 112.832 66.9318 112.898 67.476ZM85.7174 44.5352C85.3487 44.5292 84.9808 44.5698 84.6225 44.6559V44.7155H84.6835C84.896 45.149 85.2712 45.4274 85.5345 45.7997L86.1433 47.0641L86.2035 47.0046C86.5803 46.7421 86.7522 46.322 86.7505 45.6797C86.5989 45.5221 86.5769 45.3251 86.4465 45.1381C86.2738 44.8865 85.9367 44.7456 85.7174 44.5352Z" fill="#00618A"/>
</svg>
