<svg width="73" height="34" viewBox="0 0 73 34" fill="none" xmlns="http://www.w3.org/2000/svg">
<rect width="73.0001" height="33.9556" rx="5" fill="#DB202C"/>
<path d="M45.2634 10V20.1655C46.5429 20.2239 47.8189 20.2944 49.0914 20.3776V22.5328C47.0732 22.4009 45.0529 22.3009 43.0314 22.2327V10H45.2634ZM63.0001 10.0012L60.0937 16.605L62.9994 23.9537L62.9962 23.9551C62.149 23.8369 61.301 23.7246 60.4522 23.6179L58.8205 19.4934L57.1732 23.2351C56.3918 23.1505 55.6098 23.0707 54.8273 22.9957L57.6607 16.5607L55.0658 10.0013H57.4803L58.9332 13.6722L60.5486 10.0012H63.0001ZM35.3711 22.1258V10.0011H41.6017V12.1758H37.6031V14.994H40.6285V17.1493H37.6031V22.1254L35.3711 22.1258ZM27.0367 12.1759V10.001H33.9402V12.1758H31.6043V22.1848C30.8593 22.204 30.1152 22.2266 29.3725 22.2541V12.1759H27.0367ZM19.4064 22.8806V10.0014H25.6059V12.176H21.6381V15.1217C22.5496 15.1102 23.8457 15.0973 24.6521 15.0991V17.2546C23.6427 17.2425 22.5033 17.2682 21.6381 17.2767V20.5397C22.9597 20.4376 24.2824 20.349 25.6059 20.2739V22.4294C23.537 22.5463 21.4702 22.6968 19.4064 22.8808M15.028 17.8982L15.0279 10.001H17.2599V23.0839C16.444 23.1661 15.6295 23.2536 14.8166 23.3461L12.2319 16.0691V23.6577C11.4873 23.7527 10.7434 23.852 10 23.9556V10.0012H12.1211L15.028 17.8982ZM50.9328 22.6628V10.0012H53.1649V22.8435C52.4217 22.7786 51.678 22.7186 50.9328 22.6628Z" fill="white"/>
</svg>
