<svg width="1787" height="183" viewBox="0 0 1787 183" fill="none" xmlns="http://www.w3.org/2000/svg">
<path d="M1501.62 93.2377C1495.22 126.266 1505.14 159.028 1524.01 183H1471.23C1471.23 148.374 1492.98 123.869 1497.46 93.2377C1500.98 69.2655 1491.06 41.5644 1471.23 2.14355H1515.06C1546.09 2.14355 1627.35 2.9426 1627.35 41.298C1627.35 67.6674 1600.8 86.3124 1540.01 91.6395C1570.4 129.196 1639.51 163.556 1625.75 183H1578.4C1594.4 144.112 1558.57 118.808 1536.81 91.9059C1526.25 92.705 1514.42 93.2377 1501.62 93.2377ZM1515.7 5.33982C1517.62 20.2558 1508.66 59.943 1502.26 90.0414C1575.52 89.775 1593.76 68.2001 1593.76 41.298C1593.76 5.60619 1545.13 5.33982 1515.7 5.33982Z" fill="black"/>
<path d="M1336.51 135.322C1340.67 152.902 1349.95 169.682 1359.54 183H1311.55C1311.55 148.374 1322.43 121.738 1335.55 93.2377C1348.35 64.2047 1375.22 41.5644 1357.3 2.14355H1396.98C1398.57 4.80713 1399.53 7.20434 1399.53 10.1342C1402.41 78.3217 1484.64 148.107 1468.96 183H1426.09C1430.57 165.42 1431.53 149.705 1430.57 135.322H1336.51ZM1339.39 92.705C1333.63 105.49 1333.31 118.808 1335.87 132.126H1430.25C1425.77 90.5741 1403.69 58.8776 1396.98 21.0549C1387.06 42.3635 1350.59 67.401 1339.39 92.705Z" fill="black"/>
<path d="M1652.56 135.322C1656.72 152.902 1666 169.682 1675.6 183H1627.61C1627.61 148.374 1638.49 121.738 1651.6 93.2377C1664.4 64.2047 1691.27 41.5644 1673.36 2.14355H1713.03C1714.63 4.80713 1715.59 7.20434 1715.59 10.1342C1718.47 78.3217 1800.69 148.107 1785.01 183H1742.14C1746.62 165.42 1747.58 149.705 1746.62 135.322H1652.56ZM1655.44 92.705C1649.68 105.49 1649.36 118.808 1651.92 132.126H1746.3C1741.82 90.5741 1719.75 58.8776 1713.03 21.0549C1703.11 42.3635 1666.64 67.401 1655.44 92.705Z" fill="black"/>
<path d="M1133.2 132.21C1120.72 169.598 1083.92 182.591 1048.08 182.591C1035.28 182.591 961.371 182.591 961.371 92.1698C961.371 18.7191 1001.69 2.01367 1048.08 2.01367C1055.12 2.01367 1102.48 7.84729 1122.64 49.7434H1119.44C1103.12 36.4851 1060.88 26.9392 1038.16 28.5302C995.928 31.9773 965.531 52.395 965.531 92.1698C965.531 132.21 1015.77 160.317 1058 160.317C1086.16 160.317 1120.4 156.87 1133.2 125.315C1122.64 124.255 1112.08 123.724 1101.52 123.724C1077.84 123.724 1053.2 126.376 1028.57 131.679L1030.16 120.542H1136.4V183H1133.2V132.21Z" fill="black"/>
<path d="M1308.35 132.21C1295.87 169.598 1259.07 182.591 1223.24 182.591C1210.44 182.591 1136.52 182.591 1136.52 92.1698C1136.52 18.7191 1176.84 2.01367 1223.24 2.01367C1230.28 2.01367 1277.63 7.8473 1297.79 49.7434H1294.59C1278.27 36.4851 1236.03 26.9392 1213.32 28.5302C1171.08 31.9773 1140.68 52.395 1140.68 92.1698C1140.68 132.21 1190.92 160.317 1233.15 160.317C1261.31 160.317 1295.55 156.87 1308.35 125.315C1297.79 124.255 1287.23 123.724 1276.67 123.724C1252.99 123.724 1228.36 126.376 1203.72 131.679L1205.32 120.542H1311.55V182.981H1308.35V132.21Z" fill="black"/>
<path d="M812.916 92.4386C805.878 125.733 815.796 158.762 834.991 183H782.203C782.203 148.374 803.958 123.869 808.437 92.9713C811.956 69.2655 802.039 41.298 782.203 2.14355H826.033C852.907 57.8122 883.94 122.271 910.814 178.206C929.37 141.448 938.008 114.813 934.809 91.9059C930.33 61.2748 908.575 36.77 908.575 2.14355H961.363C942.167 26.1157 932.249 59.4103 939.288 92.4386C946.006 125.467 969.361 158.495 952.085 183H908.575L832.112 24.2512C831.472 45.027 817.715 68.7328 812.916 92.4386Z" fill="black"/>
<path d="M647.607 135.322C651.766 152.902 661.044 169.682 670.642 183H622.652C622.652 148.374 633.53 121.738 646.647 93.2377C659.444 64.2047 686.318 41.5644 668.402 2.14355H708.073C709.673 4.80713 710.633 7.20434 710.633 10.1342C713.512 78.3217 795.733 148.107 780.059 183H737.187C741.666 165.42 742.625 149.705 741.666 135.322H647.607ZM650.486 92.705C644.727 105.49 644.407 118.808 646.967 132.126H741.346C736.867 90.5741 714.792 58.8776 708.073 21.0549C698.155 42.3635 661.684 67.401 650.486 92.705Z" fill="black"/>
<path d="M569.816 91.3605C569.816 160.88 532.307 182.721 486.285 182.721C473.676 182.721 400.23 182.721 400.23 91.3605C400.23 16.7805 440.263 0 486.285 0C495.427 0 569.816 7.99073 569.816 91.3605ZM404.328 91.3605C404.328 131.58 454.133 155.286 496.372 155.286C538.296 155.286 566.351 131.58 566.351 91.3605C566.351 51.1406 518.437 25.3039 476.513 25.3039C434.274 25.3039 404.328 51.1406 404.328 91.3605Z" fill="black"/>
<path d="M400.2 2.14355C384.201 92.4386 267.748 125.201 284.064 182.734H230.317C232.557 146.775 273.826 138.252 308.378 117.21C277.026 87.3778 233.837 54.6159 224.559 2.14355H272.547C260.709 66.602 283.424 95.9012 312.218 114.813C341.011 95.9012 364.046 66.602 352.209 2.14355H400.2Z" fill="black"/>
<path d="M202.498 92.705C195.46 125.733 205.378 158.762 224.573 183H171.785C171.785 148.374 193.54 123.869 198.019 93.2377C201.538 69.2655 191.621 41.5644 171.785 2.14355H215.615C232.891 26.6484 209.217 59.6767 202.498 92.705Z" fill="black"/>
<path d="M171.801 89.2423C171.801 158.495 104.616 182.734 52.7881 183H0C0 148.374 21.7551 123.869 26.2341 92.9713C29.7533 68.9992 19.8355 41.298 0 2.14355H40.9508C41.2707 2.14355 41.5907 2.14355 41.9106 2.14355H43.8301C117.414 2.67625 171.801 29.8447 171.801 89.2423ZM46.3896 173.678C50.8686 177.407 56.9472 179.271 63.6657 179.271C90.8596 179.271 129.891 148.374 129.891 89.2423C129.891 31.1765 115.174 5.87255 44.47 5.07346C46.7095 20.5222 36.7917 62.0739 30.7131 92.4386C24.6345 121.738 31.353 150.771 46.3896 173.678Z" fill="black"/>
</svg>
