<svg width="128" height="129" viewBox="0 0 128 129" fill="none" xmlns="http://www.w3.org/2000/svg">
<rect x="1" y="1.5" width="126" height="126" rx="19" stroke="black" stroke-width="0"/>
<path d="M63.9996 91C92.7182 91 116 79.1351 116 64.5C116 49.8649 92.7191 38 63.9996 38C35.2801 38 12 49.8649 12 64.5C12 79.1351 35.281 91 63.9996 91Z" fill="#6181B6"/>
<path d="M74.7931 72.689L77.3599 59.3446C77.9394 56.3319 77.4571 54.0846 75.929 52.6662C74.4477 51.2923 71.9338 50.625 68.2416 50.625H63.7959L65.0679 44.0126C65.0913 43.8895 65.0875 43.7628 65.0569 43.6414C65.0262 43.52 64.9694 43.407 64.8905 43.3103C64.8117 43.2136 64.7126 43.1356 64.6006 43.082C64.4885 43.0284 64.366 43.0004 64.242 43H58.1057C57.9103 43.0001 57.721 43.0687 57.5702 43.1941C57.4194 43.3196 57.3164 43.4941 57.2789 43.6878L54.5531 57.8556C54.3058 56.2614 53.6936 54.8911 52.7167 53.7599C50.9165 51.6795 48.0696 50.6241 44.2547 50.6241H32.3592C32.1638 50.6238 31.9745 50.6923 31.8238 50.8179C31.673 50.9435 31.5703 51.1181 31.5333 51.3119L26.0153 79.9883C25.9918 80.1114 25.9954 80.238 26.026 80.3595C26.0566 80.4809 26.1134 80.594 26.1923 80.6907C26.2712 80.7873 26.3703 80.8652 26.4825 80.9186C26.5947 80.9722 26.7171 80.9999 26.8412 81H33.0261C33.2215 81.0001 33.411 80.9315 33.5618 80.8061C33.7126 80.6805 33.8155 80.5059 33.8529 80.3122L35.1876 73.3759H39.7922C42.208 73.3759 44.237 73.1118 45.8225 72.59C47.4425 72.0582 48.9335 71.1563 50.2487 69.9127C51.2823 68.962 52.1642 67.8559 52.8633 66.6332L51.761 72.3642C51.7368 72.4873 51.7402 72.6142 51.7706 72.7358C51.801 72.8575 51.8578 72.9708 51.9367 73.0675C52.0158 73.1643 52.1151 73.2422 52.2275 73.2955C52.3399 73.3489 52.4627 73.3763 52.5868 73.3759H58.7231C58.9185 73.3758 59.1078 73.3072 59.2586 73.1817C59.4095 73.0563 59.5124 72.8818 59.5499 72.6881L62.5788 56.9466H66.7895C68.5834 56.9466 69.109 57.307 69.2512 57.4622C69.3811 57.6041 69.6505 58.1028 69.3484 59.6747L66.9069 72.3634C66.8829 72.4864 66.8862 72.6133 66.9166 72.7349C66.947 72.8566 67.0038 72.9699 67.0827 73.0666C67.1618 73.1634 67.2611 73.2413 67.3735 73.2946C67.4859 73.348 67.6086 73.3754 67.7328 73.375H73.9672C74.1623 73.3754 74.3514 73.307 74.5021 73.1819C74.6529 73.0567 74.7557 72.8824 74.7931 72.689ZM46.3437 61.6623C45.9577 63.6625 45.2316 65.0899 44.1849 65.9044C43.1205 66.7314 41.4184 67.1507 39.1262 67.1507H36.3844L38.3666 56.8484H41.9104C44.5143 56.8484 45.5637 57.4105 45.9842 57.8815C46.5689 58.5363 46.6926 59.8433 46.3437 61.6623ZM101.034 53.7599C99.2339 51.6795 96.3871 50.6241 92.5713 50.6241H80.6785C80.483 50.6238 80.2936 50.6923 80.1426 50.8179C79.9917 50.9434 79.8889 51.1181 79.8517 51.3119L74.3329 79.9883C74.3093 80.1114 74.3129 80.238 74.3436 80.3595C74.3741 80.4809 74.4309 80.594 74.5098 80.6907C74.5888 80.7873 74.6879 80.8652 74.8 80.9186C74.9122 80.9722 75.0346 80.9999 75.1587 81H81.3445C81.5398 80.9999 81.7289 80.9312 81.8796 80.8058C82.0303 80.6803 82.1331 80.5058 82.1704 80.3122L83.506 73.3759H88.1097C90.5256 73.3759 92.5554 73.1118 94.14 72.59C95.7609 72.0582 97.2509 71.1563 98.5662 69.9127C99.6623 68.8948 100.566 67.7529 101.249 66.5173C101.947 65.2397 102.439 63.858 102.706 62.4242C103.41 58.7718 102.848 55.8555 101.034 53.7599ZM94.6197 61.6623C94.2337 63.6625 93.5076 65.0899 92.4609 65.9044C91.3974 66.7314 89.6953 67.1507 87.4022 67.1507H84.6604L86.6434 56.8484H90.1873C92.7912 56.8484 93.8406 57.4105 94.261 57.8815C94.8458 58.5363 94.9686 59.8433 94.6197 61.6623Z" fill="white"/>
<path d="M41.2147 56.049C43.5869 56.049 45.1689 56.4833 45.959 57.353C46.7482 58.2218 46.9373 59.7135 46.5235 61.827C46.0919 64.0282 45.2607 65.5995 44.0283 66.5408C42.7959 67.4813 40.9204 67.9519 38.4029 67.9519H34.6039L36.9351 56.0498L41.2147 56.049ZM26 80H32.2443L33.7255 72.4392H39.0744C41.4341 72.4392 43.3755 72.1941 44.8996 71.7014C46.4236 71.2095 47.8095 70.3849 49.0562 69.2268C50.0676 68.3155 50.9256 67.2495 51.5978 66.0693C52.2461 64.9191 52.7054 63.6504 52.9773 62.2605C53.6382 58.8889 53.1397 56.2639 51.4827 54.383C49.8258 52.5021 47.1915 51.5617 43.5797 51.5617H31.571L26 80ZM57.5638 44H63.759L62.2778 51.5608H67.797C71.2696 51.5608 73.6649 52.1624 74.9839 53.363C76.3028 54.5653 76.697 56.5134 76.17 59.2047L73.5784 72.4392H67.2842L69.7482 59.8559C70.0283 58.4244 69.9257 57.4477 69.4388 56.9266C68.9519 56.4073 67.9156 56.1463 66.3309 56.1463H61.3788L58.188 72.4392H51.9928L57.5638 44ZM89.9543 56.049C92.3264 56.049 93.9084 56.4833 94.6977 57.353C95.4887 58.2218 95.6759 59.7135 95.2631 61.827C94.8314 64.0282 93.9994 65.5995 92.7669 66.5408C91.5345 67.4813 89.66 67.9519 87.1416 67.9519H83.3435L85.6746 56.0498L89.9543 56.049ZM74.7404 80H80.9847L82.466 72.4392H87.814C90.1736 72.4392 92.1151 72.1941 93.6391 71.7014C95.1641 71.2095 96.55 70.3849 97.7958 69.2268C98.808 68.3157 99.6659 67.2497 100.338 66.0693C100.986 64.9191 101.446 63.6504 101.718 62.2605C102.378 58.8889 101.88 56.2639 100.223 54.383C98.5663 52.5021 95.932 51.5617 92.3193 51.5617H80.3114L74.7404 80Z" fill="#000004"/>
</svg>
