<svg width="99" height="44" viewBox="0 0 99 44" fill="none" xmlns="http://www.w3.org/2000/svg">
<rect width="99" height="44" rx="5" fill="#1E1E1E"/>
<rect width="38" height="24" transform="translate(10 10)" fill="#1E1E1E"/>
<path d="M19.552 20.384C19.552 21.0347 19.4027 21.632 19.104 22.176C18.8053 22.7093 18.3467 23.1413 17.728 23.472C17.1093 23.8027 16.3413 23.968 15.424 23.968H13.728V28H10.992V16.768H15.424C16.32 16.768 17.0773 16.9227 17.696 17.232C18.3147 17.5413 18.7787 17.968 19.088 18.512C19.3973 19.056 19.552 19.68 19.552 20.384ZM15.216 21.792C15.7387 21.792 16.128 21.6693 16.384 21.424C16.64 21.1787 16.768 20.832 16.768 20.384C16.768 19.936 16.64 19.5893 16.384 19.344C16.128 19.0987 15.7387 18.976 15.216 18.976H13.728V21.792H15.216ZM25.0404 28.128C24.1657 28.128 23.3764 27.9413 22.6724 27.568C21.979 27.1947 21.4297 26.6613 21.0244 25.968C20.6297 25.2747 20.4324 24.464 20.4324 23.536C20.4324 22.6187 20.635 21.8133 21.0404 21.12C21.4457 20.416 22.0004 19.8773 22.7044 19.504C23.4084 19.1307 24.1977 18.944 25.0724 18.944C25.947 18.944 26.7364 19.1307 27.4404 19.504C28.1444 19.8773 28.699 20.416 29.1044 21.12C29.5097 21.8133 29.7124 22.6187 29.7124 23.536C29.7124 24.4533 29.5044 25.264 29.0884 25.968C28.683 26.6613 28.123 27.1947 27.4084 27.568C26.7044 27.9413 25.915 28.128 25.0404 28.128ZM25.0404 25.76C25.563 25.76 26.0057 25.568 26.3684 25.184C26.7417 24.8 26.9284 24.2507 26.9284 23.536C26.9284 22.8213 26.747 22.272 26.3844 21.888C26.0324 21.504 25.595 21.312 25.0724 21.312C24.539 21.312 24.0964 21.504 23.7444 21.888C23.3924 22.2613 23.2164 22.8107 23.2164 23.536C23.2164 24.2507 23.387 24.8 23.7284 25.184C24.0804 25.568 24.5177 25.76 25.0404 25.76ZM33.8999 20.56C34.2199 20.0693 34.6199 19.6853 35.0999 19.408C35.5799 19.12 36.1132 18.976 36.6999 18.976V21.872H35.9479C35.2652 21.872 34.7532 22.0213 34.4119 22.32C34.0705 22.608 33.8999 23.12 33.8999 23.856V28H31.1639V19.072H33.8999V20.56ZM43.4476 18.976C44.493 18.976 45.325 19.3173 45.9436 20C46.573 20.672 46.8876 21.6 46.8876 22.784V28H44.1676V23.152C44.1676 22.5547 44.013 22.0907 43.7036 21.76C43.3943 21.4293 42.9783 21.264 42.4556 21.264C41.933 21.264 41.517 21.4293 41.2076 21.76C40.8983 22.0907 40.7436 22.5547 40.7436 23.152V28H38.0076V19.072H40.7436V20.256C41.021 19.8613 41.3943 19.552 41.8636 19.328C42.333 19.0933 42.861 18.976 43.4476 18.976Z" fill="white"/>
<rect x="52" y="10" width="37" height="24" rx="5" fill="#F7971C"/>
<path d="M60.48 18.976C61.504 18.976 62.3253 19.3173 62.944 20C63.5627 20.672 63.872 21.6 63.872 22.784V28H61.152V23.152C61.152 22.5547 60.9973 22.0907 60.688 21.76C60.3787 21.4293 59.9627 21.264 59.44 21.264C58.9173 21.264 58.5013 21.4293 58.192 21.76C57.8827 22.0907 57.728 22.5547 57.728 23.152V28H54.992V16.16H57.728V20.272C58.0053 19.8773 58.384 19.5627 58.864 19.328C59.344 19.0933 59.8827 18.976 60.48 18.976ZM74.5893 19.072V28H71.8533V26.784C71.5759 27.1787 71.1973 27.4987 70.7173 27.744C70.2479 27.9787 69.7253 28.096 69.1493 28.096C68.4666 28.096 67.8639 27.9467 67.3413 27.648C66.8186 27.3387 66.4133 26.896 66.1253 26.32C65.8373 25.744 65.6933 25.0667 65.6933 24.288V19.072H68.4133V23.92C68.4133 24.5173 68.5679 24.9813 68.8773 25.312C69.1866 25.6427 69.6026 25.808 70.1253 25.808C70.6586 25.808 71.0799 25.6427 71.3893 25.312C71.6986 24.9813 71.8533 24.5173 71.8533 23.92V19.072H74.5893ZM79.2905 20.336C79.5465 19.92 79.9145 19.584 80.3945 19.328C80.8745 19.072 81.4238 18.944 82.0425 18.944C82.7785 18.944 83.4452 19.1307 84.0425 19.504C84.6398 19.8773 85.1092 20.4107 85.4505 21.104C85.8025 21.7973 85.9785 22.6027 85.9785 23.52C85.9785 24.4373 85.8025 25.248 85.4505 25.952C85.1092 26.6453 84.6398 27.184 84.0425 27.568C83.4452 27.9413 82.7785 28.128 82.0425 28.128C81.4132 28.128 80.8638 28.0053 80.3945 27.76C79.9252 27.504 79.5572 27.168 79.2905 26.752V28H76.5545V16.16H79.2905V20.336ZM83.1945 23.52C83.1945 22.8373 83.0025 22.304 82.6185 21.92C82.2452 21.5253 81.7812 21.328 81.2265 21.328C80.6825 21.328 80.2185 21.5253 79.8345 21.92C79.4612 22.3147 79.2745 22.8533 79.2745 23.536C79.2745 24.2187 79.4612 24.7573 79.8345 25.152C80.2185 25.5467 80.6825 25.744 81.2265 25.744C81.7705 25.744 82.2345 25.5467 82.6185 25.152C83.0025 24.7467 83.1945 24.2027 83.1945 23.52Z" fill="black"/>
</svg>
