<svg width="79" height="24" viewBox="0 0 79 24" fill="none" xmlns="http://www.w3.org/2000/svg">
<rect width="79" height="24" fill="#1E1E1E"/>
<rect width="38" height="24" fill="#1E1E1E"/>
<path d="M9.552 10.384C9.552 11.0347 9.40267 11.632 9.104 12.176C8.80533 12.7093 8.34667 13.1413 7.728 13.472C7.10933 13.8027 6.34133 13.968 5.424 13.968H3.728V18H0.992V6.768H5.424C6.32 6.768 7.07733 6.92267 7.696 7.232C8.31467 7.54133 8.77867 7.968 9.088 8.512C9.39733 9.056 9.552 9.68 9.552 10.384ZM5.216 11.792C5.73867 11.792 6.128 11.6693 6.384 11.424C6.64 11.1787 6.768 10.832 6.768 10.384C6.768 9.936 6.64 9.58933 6.384 9.344C6.128 9.09867 5.73867 8.976 5.216 8.976H3.728V11.792H5.216ZM15.0404 18.128C14.1657 18.128 13.3764 17.9413 12.6724 17.568C11.979 17.1947 11.4297 16.6613 11.0244 15.968C10.6297 15.2747 10.4324 14.464 10.4324 13.536C10.4324 12.6187 10.635 11.8133 11.0404 11.12C11.4457 10.416 12.0004 9.87733 12.7044 9.504C13.4084 9.13067 14.1977 8.944 15.0724 8.944C15.947 8.944 16.7364 9.13067 17.4404 9.504C18.1444 9.87733 18.699 10.416 19.1044 11.12C19.5097 11.8133 19.7124 12.6187 19.7124 13.536C19.7124 14.4533 19.5044 15.264 19.0884 15.968C18.683 16.6613 18.123 17.1947 17.4084 17.568C16.7044 17.9413 15.915 18.128 15.0404 18.128ZM15.0404 15.76C15.563 15.76 16.0057 15.568 16.3684 15.184C16.7417 14.8 16.9284 14.2507 16.9284 13.536C16.9284 12.8213 16.747 12.272 16.3844 11.888C16.0324 11.504 15.595 11.312 15.0724 11.312C14.539 11.312 14.0964 11.504 13.7444 11.888C13.3924 12.2613 13.2164 12.8107 13.2164 13.536C13.2164 14.2507 13.387 14.8 13.7284 15.184C14.0804 15.568 14.5177 15.76 15.0404 15.76ZM23.8999 10.56C24.2199 10.0693 24.6199 9.68533 25.0999 9.408C25.5799 9.12 26.1132 8.976 26.6999 8.976V11.872H25.9479C25.2652 11.872 24.7532 12.0213 24.4119 12.32C24.0705 12.608 23.8999 13.12 23.8999 13.856V18H21.1639V9.072H23.8999V10.56ZM33.4476 8.976C34.493 8.976 35.325 9.31733 35.9436 10C36.573 10.672 36.8876 11.6 36.8876 12.784V18H34.1676V13.152C34.1676 12.5547 34.013 12.0907 33.7036 11.76C33.3943 11.4293 32.9783 11.264 32.4556 11.264C31.933 11.264 31.517 11.4293 31.2076 11.76C30.8983 12.0907 30.7436 12.5547 30.7436 13.152V18H28.0076V9.072H30.7436V10.256C31.021 9.86133 31.3943 9.552 31.8636 9.328C32.333 9.09333 32.861 8.976 33.4476 8.976Z" fill="white"/>
<rect x="42" width="37" height="24" rx="5" fill="#F7971C"/>
<path d="M50.48 8.976C51.504 8.976 52.3253 9.31733 52.944 10C53.5627 10.672 53.872 11.6 53.872 12.784V18H51.152V13.152C51.152 12.5547 50.9973 12.0907 50.688 11.76C50.3787 11.4293 49.9627 11.264 49.44 11.264C48.9173 11.264 48.5013 11.4293 48.192 11.76C47.8827 12.0907 47.728 12.5547 47.728 13.152V18H44.992V6.16H47.728V10.272C48.0053 9.87733 48.384 9.56267 48.864 9.328C49.344 9.09333 49.8827 8.976 50.48 8.976ZM64.5893 9.072V18H61.8533V16.784C61.5759 17.1787 61.1973 17.4987 60.7173 17.744C60.2479 17.9787 59.7253 18.096 59.1493 18.096C58.4666 18.096 57.8639 17.9467 57.3413 17.648C56.8186 17.3387 56.4133 16.896 56.1253 16.32C55.8373 15.744 55.6933 15.0667 55.6933 14.288V9.072H58.4133V13.92C58.4133 14.5173 58.5679 14.9813 58.8773 15.312C59.1866 15.6427 59.6026 15.808 60.1253 15.808C60.6586 15.808 61.0799 15.6427 61.3893 15.312C61.6986 14.9813 61.8533 14.5173 61.8533 13.92V9.072H64.5893ZM69.2905 10.336C69.5465 9.92 69.9145 9.584 70.3945 9.328C70.8745 9.072 71.4238 8.944 72.0425 8.944C72.7785 8.944 73.4452 9.13067 74.0425 9.504C74.6398 9.87733 75.1092 10.4107 75.4505 11.104C75.8025 11.7973 75.9785 12.6027 75.9785 13.52C75.9785 14.4373 75.8025 15.248 75.4505 15.952C75.1092 16.6453 74.6398 17.184 74.0425 17.568C73.4452 17.9413 72.7785 18.128 72.0425 18.128C71.4132 18.128 70.8638 18.0053 70.3945 17.76C69.9252 17.504 69.5572 17.168 69.2905 16.752V18H66.5545V6.16H69.2905V10.336ZM73.1945 13.52C73.1945 12.8373 73.0025 12.304 72.6185 11.92C72.2452 11.5253 71.7812 11.328 71.2265 11.328C70.6825 11.328 70.2185 11.5253 69.8345 11.92C69.4612 12.3147 69.2745 12.8533 69.2745 13.536C69.2745 14.2187 69.4612 14.7573 69.8345 15.152C70.2185 15.5467 70.6825 15.744 71.2265 15.744C71.7705 15.744 72.2345 15.5467 72.6185 15.152C73.0025 14.7467 73.1945 14.2027 73.1945 13.52Z" fill="black"/>
</svg>
