<svg width="100" height="34" viewBox="0 0 100 34" fill="none" xmlns="http://www.w3.org/2000/svg">
<rect width="100" height="34" rx="5" fill="#0070D1"/>
<path d="M16.582 11.0016V23.2466L19.4536 24.125V13.8578C19.4536 13.374 19.6771 13.0527 20.0354 13.1632C20.5039 13.2887 20.595 13.7343 20.595 14.2128V18.3133C22.3824 19.1486 23.7896 18.3129 23.7896 16.109C23.7896 13.8569 22.9646 12.8536 20.5369 12.047C19.5794 11.7391 17.8048 11.2197 16.582 11.0016Z" fill="white"/>
<path d="M20 22.3335L24.612 20.7486C25.1338 20.5619 25.2135 20.3082 24.7913 20.1749C24.3624 20.0391 23.5969 20.078 23.0695 20.2608L20 21.3062V19.6381L20.1758 19.5821C20.1758 19.5821 21.0643 19.2782 22.314 19.1473C23.5613 19.0153 25.0909 19.1645 26.2932 19.602C27.6475 20.0174 27.7993 20.6233 27.4566 21.045C27.109 21.4623 26.2662 21.7641 26.2662 21.7641L20 23.9375" fill="white"/>
<path d="M11.3214 22.1638C9.93286 21.7903 9.70131 21.0012 10.3348 20.5453C10.9191 20.129 11.9142 19.8157 11.9142 19.8157L16.0276 18.3996V20.0113L13.0703 21.0348C12.5464 21.2157 12.4679 21.4703 12.8898 21.6034C13.3193 21.742 14.0815 21.7048 14.6056 21.518L16.0276 21.023V22.4618C15.936 22.4766 15.8341 22.4916 15.7411 22.5069C14.3233 22.7341 12.8128 22.6408 11.3214 22.1638Z" fill="white"/>
<path d="M26.7263 23.2874C26.7263 23.3281 26.7162 23.3547 26.6946 23.3681C26.6698 23.3844 26.6372 23.3926 26.5962 23.3926H26.39V23.1894H26.6083C26.6392 23.1894 26.6622 23.1945 26.6808 23.2015C26.7109 23.2157 26.7263 23.2444 26.7263 23.2874ZM26.8754 23.7533C26.865 23.7504 26.8577 23.7405 26.8517 23.7237C26.849 23.7108 26.847 23.6924 26.8464 23.6688L26.8431 23.5767C26.8416 23.5341 26.8332 23.5009 26.8146 23.4811C26.8054 23.4655 26.789 23.4556 26.7733 23.4448C26.7938 23.4268 26.8127 23.4083 26.8287 23.3881C26.847 23.3594 26.8577 23.3205 26.8577 23.2791C26.8577 23.1945 26.8201 23.1344 26.7466 23.1011C26.71 23.0861 26.6622 23.0763 26.6054 23.0763H26.2572V23.7995H26.39V23.5051H26.5924C26.6301 23.5051 26.6554 23.5098 26.674 23.5157C26.699 23.5312 26.7126 23.5544 26.7142 23.5945L26.7207 23.7073C26.7227 23.7361 26.7246 23.7533 26.7263 23.7664L26.7362 23.7913L26.739 23.7995H26.8847V23.7584M25.9843 23.4543C25.9843 23.3066 26.0416 23.1711 26.1462 23.0706C26.2534 22.968 26.3965 22.9127 26.5451 22.9127C26.6939 22.9127 26.8333 22.968 26.9379 23.0706C27.0435 23.1711 27.1005 23.3066 27.1005 23.4543C27.1005 23.7504 26.8511 23.9907 26.5451 23.9907C26.3965 23.9907 26.2534 23.9359 26.1462 23.8346C26.0416 23.7324 25.9843 23.5984 25.9843 23.4543ZM26.5451 24.1016C26.7246 24.1016 26.8914 24.0332 27.0184 23.9121C27.144 23.7888 27.2149 23.6278 27.2149 23.4543C27.2149 23.2792 27.144 23.1155 27.0184 22.9945C26.8914 22.8708 26.7246 22.8046 26.5451 22.8046C26.1724 22.8046 25.8711 23.0949 25.8711 23.4543C25.8711 23.6278 25.9406 23.7888 26.0662 23.9121C26.1934 24.0332 26.3656 24.1016 26.5451 24.1016Z" fill="white"/>
<path d="M36.9663 14.2125L33.4984 14.2111C33.4841 14.2111 33.4727 14.222 33.4727 14.2347V22.0655C33.4727 22.0781 33.4841 22.0898 33.4984 22.0898H34.9039L34.9286 22.0655L34.9302 15.0847L34.9385 15.073L36.5478 15.0701C37.1337 15.0701 37.4556 15.6402 37.4556 16.6733C37.4556 17.707 37.1337 18.2785 36.5478 18.2785L35.5792 18.2775C35.5647 18.2775 35.555 18.2881 35.555 18.3015V19.1139C35.555 19.1298 35.5647 19.1394 35.5792 19.1394H36.9663C37.4556 19.1394 37.9348 18.9205 38.2806 18.5442C38.6904 18.0977 38.9061 17.4531 38.9061 16.6805C38.9061 15.1834 38.1487 14.2125 36.9663 14.2125Z" fill="white"/>
<path d="M41.2033 14.2111H39.797C39.781 14.2111 39.7695 14.222 39.7695 14.2347V22.0655C39.7695 22.0782 39.781 22.0898 39.797 22.0898H41.2033L41.2291 22.0655V14.2347L41.2033 14.2111Z" fill="white"/>
<path d="M47.3371 16.1173C47.3371 16.1035 47.3244 16.093 47.3106 16.093H44.8062C42.5605 16.093 42.2734 17.6846 42.2734 19.0834L42.2751 20.293C42.2751 21.334 42.9456 22.0898 43.8675 22.0898H45.2338L45.2586 22.0657V21.2541C45.2586 21.2409 45.247 21.2291 45.2338 21.2291L44.2579 21.2307C44.033 21.2262 43.7303 21.1343 43.7303 20.3879V19.0819C43.7292 18.214 43.8129 17.6592 43.9995 17.3435C44.2017 16.995 44.5199 16.9483 44.8062 16.9483H45.8736L45.8827 16.9605L45.8813 22.0657C45.8813 22.0781 45.8922 22.0898 45.9071 22.0898H47.3109C47.3247 22.0898 47.3371 22.0781 47.3371 22.0657" fill="white"/>
<path d="M57.453 17.4883L56.7605 17.4373C56.2411 17.3941 55.8549 17.1164 55.8549 16.2948C55.8549 15.3355 56.3005 15.073 56.8954 15.073H58.8122L58.8376 15.0492V14.2348L58.8122 14.2114H58.7721L56.6955 14.2118C55.3873 14.2118 54.457 14.9537 54.457 16.4322V16.4965C54.457 17.6631 55.2005 18.5051 56.3085 18.5869L56.9978 18.6362C57.5236 18.6747 57.851 19.1286 57.851 19.8175V20.0112C57.851 20.4419 57.7394 21.2299 56.7828 21.2299H54.7912C54.7778 21.2299 54.7662 21.2411 54.7662 21.255V22.0655L54.7912 22.0898H57.2638C58.0257 22.0898 59.3015 21.7922 59.3015 19.79C59.3015 19.0646 59.1309 18.4929 58.7849 18.0797C58.49 17.7248 58.0531 17.5328 57.453 17.4883Z" fill="white"/>
<path d="M68.9723 16.1173C68.9723 16.1035 68.9604 16.093 68.9471 16.093H66.4372C64.1963 16.093 63.9062 17.6846 63.9062 19.0834L63.9081 20.293C63.9081 21.334 64.578 22.0898 65.5046 22.0898H66.8673L66.8926 22.0657V21.2541C66.8926 21.2409 66.8807 21.2291 66.8673 21.2291L65.8907 21.2307C65.6667 21.2262 65.3667 21.1343 65.3658 20.3879V19.0819C65.3658 18.214 65.4504 17.6592 65.6326 17.3435C65.8349 16.995 66.1553 16.9483 66.4367 16.9483H67.509L67.5196 16.9605L67.517 22.0657C67.517 22.0781 67.5286 22.0898 67.5426 22.0898H68.9484C68.9622 22.0898 68.9723 22.0781 68.9723 22.0657" fill="white"/>
<path d="M63.322 16.093H61.7964L61.7884 16.084V15.0972C61.7884 15.0841 61.778 15.073 61.7638 15.073H60.3589C60.3445 15.073 60.332 15.0841 60.332 15.0972V20.2936C60.332 21.3344 61.0041 22.0898 61.9294 22.0898H62.9356C62.9501 22.0898 62.9612 22.0781 62.9612 22.0655V21.2548C62.9612 21.2416 62.9501 21.2291 62.9356 21.2291H62.3178C62.1596 21.2267 61.7884 21.219 61.7869 20.4521V16.9538L61.7955 16.946C62.2628 16.9483 63.322 16.946 63.322 16.946L63.3467 16.9237V16.1173C63.3467 16.1037 63.3351 16.093 63.322 16.093Z" fill="white"/>
<path d="M73.1327 16.093H71.6157L71.6054 16.084V15.0972L71.5822 15.073H70.1744C70.1605 15.073 70.1484 15.0841 70.1484 15.0972V20.2936C70.1484 21.3344 70.8193 22.0898 71.744 22.0898H72.7499C72.765 22.0898 72.7748 22.0781 72.7748 22.0655V21.2548C72.7748 21.2416 72.765 21.2291 72.7499 21.2291H72.1323C71.9736 21.2267 71.6054 21.219 71.6054 20.4521V16.9538L71.6139 16.946C72.0776 16.9483 73.1327 16.946 73.1327 16.946L73.1577 16.9237V16.1173C73.1577 16.1037 73.145 16.093 73.1327 16.093Z" fill="white"/>
<path d="M75.4539 16.093H74.0491C74.0359 16.093 74.0234 16.1037 74.0234 16.1173V22.0655L74.0491 22.0898H75.4539C75.4693 22.0898 75.4798 22.0781 75.4798 22.0655V16.1173C75.4798 16.1037 75.4693 16.093 75.4539 16.093Z" fill="white"/>
<path d="M75.4539 14.2137H74.0491L74.0234 14.2372V15.3744C74.0234 15.3882 74.0359 15.3984 74.0491 15.3984H75.4539C75.4693 15.3984 75.4798 15.3882 75.4798 15.3744V14.2372C75.4798 14.2246 75.4693 14.2137 75.4539 14.2137Z" fill="white"/>
<path d="M85.1774 16.093H82.67C82.6569 16.093 82.6453 16.1037 82.6453 16.1173L82.6445 22.0655L82.668 22.0898H84.0754L84.0993 22.0655L84.0973 16.9589L84.1071 16.949L85.1762 16.9483C85.4653 16.9483 85.7825 16.9933 85.9854 17.3161C86.171 17.6078 86.2551 18.1206 86.2551 18.9253C86.2563 18.9601 86.2541 22.0655 86.2541 22.0655C86.2541 22.0781 86.2652 22.0898 86.2791 22.0898H87.6805C87.6957 22.0898 87.7068 22.0781 87.7068 22.0655V19.0825C87.7068 17.6845 87.4175 16.093 85.1774 16.093Z" fill="white"/>
<path d="M79.9556 20.8347C79.7344 21.1864 79.3834 21.2334 79.0648 21.2334C78.7495 21.2334 78.3973 21.1864 78.1737 20.8347C77.9722 20.5183 77.8789 19.9639 77.8789 19.0897V19.0828C77.8789 18.0511 78.0103 17.465 78.3044 17.1858C78.4804 17.0164 78.7084 16.9477 79.0648 16.9477C79.4263 16.9477 79.6521 17.0164 79.8279 17.1858C80.1195 17.465 80.2512 18.0536 80.2512 19.0897C80.2512 19.9651 80.1576 20.5199 79.9556 20.8347ZM79.0648 16.0926C76.718 16.0926 76.418 17.6916 76.418 19.0897C76.418 20.4895 76.718 22.0938 79.0648 22.0938C81.4118 22.0938 81.7111 20.4895 81.7111 19.0897C81.7111 17.6916 81.4118 16.0926 79.0648 16.0926Z" fill="white"/>
<path d="M48.1296 16.0939L48.1133 16.1175L50.1978 22.0113C50.2013 22.0245 50.2013 22.0449 50.1969 22.0579L49.0232 24.976C49.0182 24.9898 49.0247 25 49.0386 25H50.2609C50.2759 25 50.2918 24.9898 50.2967 24.976L53.956 16.1175C53.9611 16.1034 53.9547 16.0939 53.9403 16.0939H52.6068C52.5923 16.0939 52.5771 16.1046 52.5726 16.1175L51.0233 19.9905H51.006L49.6383 16.1175C49.6351 16.1034 49.6194 16.0939 49.6054 16.0939" fill="white"/>
<path d="M89.511 21.2771C89.511 21.3164 89.4997 21.342 89.4781 21.3573C89.4542 21.3739 89.4213 21.3809 89.3811 21.3809H89.175V21.1784H89.3927C89.4237 21.1784 89.4472 21.1831 89.4647 21.1909C89.4944 21.205 89.511 21.2333 89.511 21.2771ZM89.659 21.7427C89.6494 21.7391 89.6417 21.7292 89.6355 21.7127C89.6336 21.7005 89.6316 21.6804 89.6311 21.6579L89.6278 21.5669C89.6259 21.5223 89.6177 21.489 89.5983 21.4708C89.5891 21.4548 89.5731 21.4439 89.558 21.4327C89.5775 21.4152 89.5969 21.3973 89.6128 21.3767C89.6316 21.348 89.6417 21.3107 89.6417 21.2692C89.6417 21.1831 89.6042 21.1234 89.5312 21.0904C89.4932 21.0755 89.4472 21.0656 89.3896 21.0656H89.0423V21.7886H89.175V21.4937H89.3768C89.4141 21.4937 89.4407 21.4988 89.4576 21.5046C89.4827 21.52 89.4964 21.5437 89.4986 21.5833L89.5053 21.6967C89.5069 21.7247 89.5086 21.7427 89.511 21.7541L89.5199 21.7798L89.5228 21.7886H89.6687V21.7466M88.7686 21.4433C88.7686 21.2951 88.8258 21.1607 88.9314 21.0588C89.0384 20.9573 89.181 20.9017 89.3286 20.9017C89.4778 20.9017 89.617 20.9573 89.7217 21.0588C89.8277 21.1607 89.8853 21.2951 89.8853 21.4433C89.8853 21.7394 89.6351 21.9798 89.3286 21.9798C89.181 21.9798 89.0384 21.9249 88.9314 21.8236C88.8258 21.7222 88.7686 21.5871 88.7686 21.4433ZM89.3286 22.0898C89.5087 22.0898 89.6762 22.0214 89.8036 21.9012C89.928 21.7785 89.9985 21.6161 89.9985 21.4433C89.9985 21.2682 89.928 21.1042 89.8036 20.9832C89.6762 20.8602 89.5087 20.7936 89.3286 20.7936C88.9579 20.7936 88.6562 21.0835 88.6562 21.4433C88.6562 21.6161 88.7251 21.7785 88.8512 21.9012C88.9782 22.0214 89.1498 22.0898 89.3286 22.0898Z" fill="white"/>
</svg>
