<svg width="100" height="34" viewBox="0 0 100 34" fill="none" xmlns="http://www.w3.org/2000/svg">
<rect width="100" height="34" rx="5" fill="#CCFF00"/>
<path d="M16.582 10.0016V22.2466L19.4536 23.125V12.8578C19.4536 12.374 19.6771 12.0527 20.0354 12.1632C20.5039 12.2887 20.595 12.7343 20.595 13.2128V17.3133C22.3824 18.1486 23.7896 17.3129 23.7896 15.109C23.7896 12.8569 22.9646 11.8536 20.5369 11.047C19.5794 10.7391 17.8048 10.2197 16.582 10.0016Z" fill="#1E1E1E"/>
<path d="M20 21.3335L24.612 19.7486C25.1338 19.5619 25.2135 19.3082 24.7913 19.1749C24.3624 19.0391 23.5969 19.078 23.0695 19.2608L20 20.3062V18.6381L20.1758 18.5821C20.1758 18.5821 21.0643 18.2782 22.314 18.1473C23.5613 18.0153 25.0909 18.1645 26.2932 18.602C27.6475 19.0174 27.7993 19.6233 27.4566 20.045C27.109 20.4623 26.2662 20.7641 26.2662 20.7641L20 22.9375" fill="#1E1E1E"/>
<path d="M11.3214 21.1638C9.93286 20.7903 9.70131 20.0012 10.3348 19.5453C10.9191 19.129 11.9142 18.8157 11.9142 18.8157L16.0276 17.3996V19.0113L13.0703 20.0348C12.5464 20.2157 12.4679 20.4703 12.8898 20.6034C13.3193 20.742 14.0815 20.7048 14.6056 20.518L16.0276 20.023V21.4618C15.936 21.4766 15.8341 21.4916 15.7411 21.5069C14.3233 21.7341 12.8128 21.6408 11.3214 21.1638Z" fill="#1E1E1E"/>
<path d="M26.7263 22.2874C26.7263 22.3281 26.7162 22.3547 26.6946 22.3681C26.6698 22.3844 26.6372 22.3926 26.5962 22.3926H26.39V22.1894H26.6083C26.6392 22.1894 26.6622 22.1945 26.6808 22.2015C26.7109 22.2157 26.7263 22.2444 26.7263 22.2874ZM26.8754 22.7533C26.865 22.7504 26.8577 22.7405 26.8517 22.7237C26.849 22.7108 26.847 22.6924 26.8464 22.6688L26.8431 22.5767C26.8416 22.5341 26.8332 22.5009 26.8146 22.4811C26.8054 22.4655 26.789 22.4556 26.7733 22.4448C26.7938 22.4268 26.8127 22.4083 26.8287 22.3881C26.847 22.3594 26.8577 22.3205 26.8577 22.2791C26.8577 22.1945 26.8201 22.1344 26.7466 22.1011C26.71 22.0861 26.6622 22.0763 26.6054 22.0763H26.2572V22.7995H26.39V22.5051H26.5924C26.6301 22.5051 26.6554 22.5098 26.674 22.5157C26.699 22.5312 26.7126 22.5544 26.7142 22.5945L26.7207 22.7073C26.7227 22.7361 26.7246 22.7533 26.7263 22.7664L26.7362 22.7913L26.739 22.7995H26.8847V22.7584M25.9843 22.4543C25.9843 22.3066 26.0416 22.1711 26.1462 22.0706C26.2534 21.968 26.3965 21.9127 26.5451 21.9127C26.6939 21.9127 26.8333 21.968 26.9379 22.0706C27.0435 22.1711 27.1005 22.3066 27.1005 22.4543C27.1005 22.7504 26.8511 22.9907 26.5451 22.9907C26.3965 22.9907 26.2534 22.9359 26.1462 22.8346C26.0416 22.7324 25.9843 22.5984 25.9843 22.4543ZM26.5451 23.1016C26.7246 23.1016 26.8914 23.0332 27.0184 22.9121C27.144 22.7888 27.2149 22.6278 27.2149 22.4543C27.2149 22.2792 27.144 22.1155 27.0184 21.9945C26.8914 21.8708 26.7246 21.8046 26.5451 21.8046C26.1724 21.8046 25.8711 22.0949 25.8711 22.4543C25.8711 22.6278 25.9406 22.7888 26.0662 22.9121C26.1934 23.0332 26.3656 23.1016 26.5451 23.1016Z" fill="#1E1E1E"/>
<path d="M36.9663 13.2125L33.4984 13.2111C33.4841 13.2111 33.4727 13.222 33.4727 13.2347V21.0655C33.4727 21.0781 33.4841 21.0898 33.4984 21.0898H34.9039L34.9286 21.0655L34.9302 14.0847L34.9385 14.073L36.5478 14.0701C37.1337 14.0701 37.4556 14.6402 37.4556 15.6733C37.4556 16.707 37.1337 17.2785 36.5478 17.2785L35.5792 17.2775C35.5647 17.2775 35.555 17.2881 35.555 17.3015V18.1139C35.555 18.1298 35.5647 18.1394 35.5792 18.1394H36.9663C37.4556 18.1394 37.9348 17.9205 38.2806 17.5442C38.6904 17.0977 38.9061 16.4531 38.9061 15.6805C38.9061 14.1834 38.1487 13.2125 36.9663 13.2125Z" fill="#1E1E1E"/>
<path d="M41.2033 13.2111H39.797C39.781 13.2111 39.7695 13.222 39.7695 13.2347V21.0655C39.7695 21.0782 39.781 21.0898 39.797 21.0898H41.2033L41.2291 21.0655V13.2347L41.2033 13.2111Z" fill="#1E1E1E"/>
<path d="M47.3371 15.1173C47.3371 15.1035 47.3244 15.093 47.3106 15.093H44.8062C42.5605 15.093 42.2734 16.6846 42.2734 18.0834L42.2751 19.293C42.2751 20.334 42.9456 21.0898 43.8675 21.0898H45.2338L45.2586 21.0657V20.2541C45.2586 20.2409 45.247 20.2291 45.2338 20.2291L44.2579 20.2307C44.033 20.2262 43.7303 20.1343 43.7303 19.3879V18.0819C43.7292 17.214 43.8129 16.6592 43.9995 16.3435C44.2017 15.995 44.5199 15.9483 44.8062 15.9483H45.8736L45.8827 15.9605L45.8813 21.0657C45.8813 21.0781 45.8922 21.0898 45.9071 21.0898H47.3109C47.3247 21.0898 47.3371 21.0781 47.3371 21.0657" fill="#1E1E1E"/>
<path d="M57.453 16.4883L56.7605 16.4373C56.2411 16.3941 55.8549 16.1164 55.8549 15.2948C55.8549 14.3355 56.3005 14.073 56.8954 14.073H58.8122L58.8376 14.0492V13.2348L58.8122 13.2114H58.7721L56.6955 13.2118C55.3873 13.2118 54.457 13.9537 54.457 15.4322V15.4965C54.457 16.6631 55.2005 17.5051 56.3085 17.5869L56.9978 17.6362C57.5236 17.6747 57.851 18.1286 57.851 18.8175V19.0112C57.851 19.4419 57.7394 20.2299 56.7828 20.2299H54.7912C54.7778 20.2299 54.7662 20.2411 54.7662 20.255V21.0655L54.7912 21.0898H57.2638C58.0257 21.0898 59.3015 20.7922 59.3015 18.79C59.3015 18.0646 59.1309 17.4929 58.7849 17.0797C58.49 16.7248 58.0531 16.5328 57.453 16.4883Z" fill="#1E1E1E"/>
<path d="M68.9723 15.1173C68.9723 15.1035 68.9604 15.093 68.9471 15.093H66.4372C64.1963 15.093 63.9062 16.6846 63.9062 18.0834L63.9081 19.293C63.9081 20.334 64.578 21.0898 65.5046 21.0898H66.8673L66.8926 21.0657V20.2541C66.8926 20.2409 66.8807 20.2291 66.8673 20.2291L65.8907 20.2307C65.6667 20.2262 65.3667 20.1343 65.3658 19.3879V18.0819C65.3658 17.214 65.4504 16.6592 65.6326 16.3435C65.8349 15.995 66.1553 15.9483 66.4367 15.9483H67.509L67.5196 15.9605L67.517 21.0657C67.517 21.0781 67.5286 21.0898 67.5426 21.0898H68.9484C68.9622 21.0898 68.9723 21.0781 68.9723 21.0657" fill="#1E1E1E"/>
<path d="M63.322 15.093H61.7964L61.7884 15.084V14.0972C61.7884 14.0841 61.778 14.073 61.7638 14.073H60.3589C60.3445 14.073 60.332 14.0841 60.332 14.0972V19.2936C60.332 20.3344 61.0041 21.0898 61.9294 21.0898H62.9356C62.9501 21.0898 62.9612 21.0781 62.9612 21.0655V20.2548C62.9612 20.2416 62.9501 20.2291 62.9356 20.2291H62.3178C62.1596 20.2267 61.7884 20.219 61.7869 19.4521V15.9538L61.7955 15.946C62.2628 15.9483 63.322 15.946 63.322 15.946L63.3467 15.9237V15.1173C63.3467 15.1037 63.3351 15.093 63.322 15.093Z" fill="#1E1E1E"/>
<path d="M73.1327 15.093H71.6157L71.6054 15.084V14.0972L71.5822 14.073H70.1744C70.1605 14.073 70.1484 14.0841 70.1484 14.0972V19.2936C70.1484 20.3344 70.8193 21.0898 71.744 21.0898H72.7499C72.765 21.0898 72.7748 21.0781 72.7748 21.0655V20.2548C72.7748 20.2416 72.765 20.2291 72.7499 20.2291H72.1323C71.9736 20.2267 71.6054 20.219 71.6054 19.4521V15.9538L71.6139 15.946C72.0776 15.9483 73.1327 15.946 73.1327 15.946L73.1577 15.9237V15.1173C73.1577 15.1037 73.145 15.093 73.1327 15.093Z" fill="#1E1E1E"/>
<path d="M75.4539 15.093H74.0491C74.0359 15.093 74.0234 15.1037 74.0234 15.1173V21.0655L74.0491 21.0898H75.4539C75.4693 21.0898 75.4798 21.0781 75.4798 21.0655V15.1173C75.4798 15.1037 75.4693 15.093 75.4539 15.093Z" fill="#1E1E1E"/>
<path d="M75.4539 13.2137H74.0491L74.0234 13.2372V14.3744C74.0234 14.3882 74.0359 14.3984 74.0491 14.3984H75.4539C75.4693 14.3984 75.4798 14.3882 75.4798 14.3744V13.2372C75.4798 13.2246 75.4693 13.2137 75.4539 13.2137Z" fill="#1E1E1E"/>
<path d="M85.1774 15.093H82.67C82.6569 15.093 82.6453 15.1037 82.6453 15.1173L82.6445 21.0655L82.668 21.0898H84.0754L84.0993 21.0655L84.0973 15.9589L84.1071 15.949L85.1762 15.9483C85.4653 15.9483 85.7825 15.9933 85.9854 16.3161C86.171 16.6078 86.2551 17.1206 86.2551 17.9253C86.2563 17.9601 86.2541 21.0655 86.2541 21.0655C86.2541 21.0781 86.2652 21.0898 86.2791 21.0898H87.6805C87.6957 21.0898 87.7068 21.0781 87.7068 21.0655V18.0825C87.7068 16.6845 87.4175 15.093 85.1774 15.093Z" fill="#1E1E1E"/>
<path d="M79.9556 19.8347C79.7344 20.1864 79.3834 20.2334 79.0648 20.2334C78.7495 20.2334 78.3973 20.1864 78.1737 19.8347C77.9722 19.5183 77.8789 18.9639 77.8789 18.0897V18.0828C77.8789 17.0511 78.0103 16.465 78.3044 16.1858C78.4804 16.0164 78.7084 15.9477 79.0648 15.9477C79.4263 15.9477 79.6521 16.0164 79.8279 16.1858C80.1195 16.465 80.2512 17.0536 80.2512 18.0897C80.2512 18.9651 80.1576 19.5199 79.9556 19.8347ZM79.0648 15.0926C76.718 15.0926 76.418 16.6916 76.418 18.0897C76.418 19.4895 76.718 21.0938 79.0648 21.0938C81.4118 21.0938 81.7111 19.4895 81.7111 18.0897C81.7111 16.6916 81.4118 15.0926 79.0648 15.0926Z" fill="#1E1E1E"/>
<path d="M48.1296 15.0939L48.1133 15.1175L50.1978 21.0113C50.2013 21.0245 50.2013 21.0449 50.1969 21.0579L49.0232 23.976C49.0182 23.9898 49.0247 24 49.0386 24H50.2609C50.2759 24 50.2918 23.9898 50.2967 23.976L53.956 15.1175C53.9611 15.1034 53.9547 15.0939 53.9403 15.0939H52.6068C52.5923 15.0939 52.5771 15.1046 52.5726 15.1175L51.0233 18.9905H51.006L49.6383 15.1175C49.6351 15.1034 49.6194 15.0939 49.6054 15.0939" fill="#1E1E1E"/>
<path d="M89.511 20.2771C89.511 20.3164 89.4997 20.342 89.4781 20.3573C89.4542 20.3739 89.4213 20.3809 89.3811 20.3809H89.175V20.1784H89.3927C89.4237 20.1784 89.4472 20.1831 89.4647 20.1909C89.4944 20.205 89.511 20.2333 89.511 20.2771ZM89.659 20.7427C89.6494 20.7391 89.6417 20.7292 89.6355 20.7127C89.6336 20.7005 89.6316 20.6804 89.6311 20.6579L89.6278 20.5669C89.6259 20.5223 89.6177 20.489 89.5983 20.4708C89.5891 20.4548 89.5731 20.4439 89.558 20.4327C89.5775 20.4152 89.5969 20.3973 89.6128 20.3767C89.6316 20.348 89.6417 20.3107 89.6417 20.2692C89.6417 20.1831 89.6042 20.1234 89.5312 20.0904C89.4932 20.0755 89.4472 20.0656 89.3896 20.0656H89.0423V20.7886H89.175V20.4937H89.3768C89.4141 20.4937 89.4407 20.4988 89.4576 20.5046C89.4827 20.52 89.4964 20.5437 89.4986 20.5833L89.5053 20.6967C89.5069 20.7247 89.5086 20.7427 89.511 20.7541L89.5199 20.7798L89.5228 20.7886H89.6687V20.7466M88.7686 20.4433C88.7686 20.2951 88.8258 20.1607 88.9314 20.0588C89.0384 19.9573 89.181 19.9017 89.3286 19.9017C89.4778 19.9017 89.617 19.9573 89.7217 20.0588C89.8277 20.1607 89.8853 20.2951 89.8853 20.4433C89.8853 20.7394 89.6351 20.9798 89.3286 20.9798C89.181 20.9798 89.0384 20.9249 88.9314 20.8236C88.8258 20.7222 88.7686 20.5871 88.7686 20.4433ZM89.3286 21.0898C89.5087 21.0898 89.6762 21.0214 89.8036 20.9012C89.928 20.7785 89.9985 20.6161 89.9985 20.4433C89.9985 20.2682 89.928 20.1042 89.8036 19.9832C89.6762 19.8602 89.5087 19.7936 89.3286 19.7936C88.9579 19.7936 88.6562 20.0835 88.6562 20.4433C88.6562 20.6161 88.7251 20.7785 88.8512 20.9012C88.9782 21.0214 89.1498 21.0898 89.3286 21.0898Z" fill="#1E1E1E"/>
</svg>
