<svg width="128" height="129" viewBox="0 0 128 129" fill="none" xmlns="http://www.w3.org/2000/svg">
<rect x="1" y="1.5" width="126" height="126" rx="19" stroke="black" stroke-width="0"/>
<path d="M63.5 58C67.6421 58 71 54.6422 71 50.5C71 46.3578 67.6421 43 63.5 43C59.3578 43 56 46.3578 56 50.5C56 54.6422 59.3578 58 63.5 58Z" fill="#61DAFB"/>
<path d="M63.5 78.7466C69.4519 84.5217 75.3223 87.938 80.0511 87.938C81.6003 87.938 83.0678 87.6126 84.2908 86.8806C88.5305 84.4404 90.0796 78.3399 88.6121 69.6365C88.3675 68.0911 88.0413 66.5456 87.6337 64.9188C89.2643 64.4308 90.7319 63.9427 92.1995 63.4547C100.434 60.2824 105 55.8901 105 51.091C105 46.2106 100.434 41.8183 92.1995 38.7273C90.7319 38.158 89.2643 37.6699 87.6337 37.2632C88.0413 35.6364 88.3675 34.091 88.6121 32.5455C89.9981 23.6795 88.449 17.4976 84.2093 15.0574C82.9863 14.3254 81.5187 14 79.9696 14C75.3223 14 69.3704 17.4163 63.4185 23.1914C57.5482 17.4163 51.6778 14 46.9489 14C45.3998 14 43.9322 14.3254 42.7093 15.0574C38.4696 17.4976 36.9204 23.5981 38.388 32.3015C38.6326 33.847 38.9588 35.3924 39.3664 37.0192C37.7358 37.5072 36.2682 37.9953 34.8006 38.4833C26.5658 41.6556 22 46.0479 22 50.847C22 55.7274 26.5658 60.1197 34.8006 63.2107C36.2682 63.78 37.7358 64.2681 39.3664 64.6748C38.9588 66.3016 38.6326 67.847 38.388 69.3925C37.002 78.0959 38.5511 84.2777 42.7093 86.6366C43.9322 87.3686 45.3998 87.694 46.9489 87.694C51.6778 87.8566 57.5482 84.4404 63.5 78.7466ZM58.9342 67.7657C60.4018 67.847 61.9509 67.847 63.5 67.847C65.0492 67.847 66.5983 67.847 68.0659 67.7657C66.5983 69.7178 65.0492 71.5073 63.5 73.2155C61.9509 71.5073 60.4018 69.7178 58.9342 67.7657ZM48.8242 59.3877C49.6395 60.7705 50.3733 62.0719 51.2702 63.3733C48.7427 63.048 46.3782 62.6413 44.0953 62.1532C44.8291 59.9571 45.6444 57.6795 46.6228 55.402C47.2751 56.7035 48.0089 58.0862 48.8242 59.3877ZM44.0953 39.7848C46.3782 39.2967 48.7427 38.89 51.2702 38.5647C50.4548 39.8661 49.6395 41.1675 48.8242 42.5503C48.0089 43.9331 47.2751 45.2345 46.6228 46.6173C45.5629 44.2585 44.7476 41.9809 44.0953 39.7848ZM48.5796 50.9283C49.6395 48.7322 50.781 46.536 52.0855 44.3398C53.3085 42.225 54.6945 40.1101 56.0806 37.9953C58.5266 37.8326 60.9725 37.7513 63.5 37.7513C66.1091 37.7513 68.5551 37.8326 70.9195 37.9953C72.3871 40.1101 73.6916 42.225 74.9146 44.3398C76.2191 46.536 77.3606 48.7322 78.4205 50.9283C77.3606 53.1245 76.2191 55.3207 74.9146 57.5169C73.6916 59.6317 72.3056 61.7465 70.9195 63.8614C68.4735 64.0241 66.0275 64.1054 63.5 64.1054C60.891 64.1054 58.445 64.0241 56.0806 63.8614C54.613 61.7465 53.3085 59.6317 52.0855 57.5169C50.781 55.3207 49.6395 53.1245 48.5796 50.9283ZM80.4588 46.536L78.2574 42.469C77.4421 41.0862 76.7083 39.7848 75.8114 38.4833C78.339 38.8087 80.7034 39.2154 82.9863 39.7034C82.2525 41.9809 81.4372 44.2585 80.4588 46.536ZM80.4588 55.3207C81.4372 57.5982 82.2525 59.8757 82.9863 62.0719C80.7034 62.5599 78.339 62.9666 75.8114 63.292C76.6268 61.9906 77.4421 60.6891 78.2574 59.3063C78.9912 58.0862 79.725 56.7035 80.4588 55.3207ZM82.334 83.5456C81.6818 83.9523 80.8665 84.115 79.9696 84.115C75.9745 84.115 71.001 80.8614 66.1091 75.981C68.4735 73.4595 70.7564 70.6126 73.0393 67.4403C76.8714 67.115 80.5403 66.5456 83.9647 65.7322C84.3724 67.1963 84.617 68.6604 84.8616 70.1245C86.003 77.0384 85.1062 82.0002 82.334 83.5456ZM86.5737 40.6795C95.7053 43.2824 101.168 47.268 101.168 50.9283C101.168 54.1006 97.4175 57.2728 90.8134 59.7944C89.5089 60.2824 88.0413 60.7705 86.5737 61.1772C85.5138 57.8422 84.2093 54.426 82.5786 50.9283C84.2093 47.4307 85.5954 44.0144 86.5737 40.6795ZM80.0511 17.7416C80.948 17.7416 81.6818 17.9043 82.4156 18.311C85.1062 19.8565 86.0845 24.7369 84.9431 31.7321C84.6985 33.1149 84.3724 34.579 84.0462 36.1245C80.6219 35.3924 76.9529 34.823 73.1209 34.4163C70.9195 31.2441 68.5551 28.3972 66.1906 25.8756C71.0826 21.0766 76.056 17.7416 80.0511 17.7416ZM68.0659 34.091C66.5983 34.0096 65.0492 34.0096 63.5 34.0096C61.9509 34.0096 60.4018 34.0096 58.9342 34.091C60.4018 32.1388 61.9509 30.3493 63.5 28.6412C65.0492 30.3493 66.5983 32.2202 68.0659 34.091ZM44.666 18.311C45.3183 17.9043 46.1336 17.7416 47.0305 17.7416C51.0256 17.7416 55.999 20.9952 60.891 25.8756C58.5266 28.3972 56.2436 31.2441 53.9607 34.4163C50.1287 34.7417 46.4597 35.3111 43.0354 36.1245C42.6277 34.6604 42.3831 33.1962 42.1385 31.7321C40.9971 24.8182 41.8939 19.9378 44.666 18.311ZM40.4263 61.1772C31.2947 58.5743 25.832 54.5886 25.832 50.9283C25.832 47.7561 29.5825 44.5838 36.1867 42.0623C37.4912 41.5742 38.9588 41.0862 40.4263 40.6795C41.4863 44.0144 42.7908 47.4307 44.4214 50.9283C42.7908 54.426 41.4047 57.9236 40.4263 61.1772ZM42.1385 70.1245C42.3831 68.7418 42.7093 67.2777 43.0354 65.7322C46.4597 66.4643 50.1287 67.0336 53.9607 67.4403C56.1621 70.6126 58.5266 73.4595 60.891 75.981C55.999 80.7801 51.0256 84.115 47.0305 84.115C46.1336 84.115 45.3998 83.9523 44.666 83.5456C41.8939 82.0002 40.9971 77.0384 42.1385 70.1245ZM38.7142 103.637C40.5079 101.44 40.5894 99.0002 39.611 96.56C38.6326 94.1198 36.5943 92.9811 34.0668 92.8997C31.0501 92.8184 27.9519 92.8997 24.9352 92.8997H24.3644V113.967H26.8104V105.995H30.6424C31.1316 105.995 31.5393 106.158 31.7839 106.565L36.6758 114.129C36.7574 114.292 37.002 114.536 37.165 114.536H40.3448C38.388 111.527 36.5128 108.68 34.556 105.751C36.2682 105.507 37.7358 104.938 38.7142 103.637ZM26.8104 103.474V95.4213H27.7073C29.5825 95.4213 31.5393 95.3399 33.4145 95.5026C35.6159 95.5839 37.165 97.2921 37.165 99.4883C37.165 101.684 35.3713 103.393 33.17 103.474C31.2132 103.555 29.2564 103.474 26.8104 103.474ZM58.3635 104.531C57.059 98.8375 51.8409 97.3734 47.8458 99.1629C44.7476 100.546 43.3615 103.23 43.28 106.565C43.1984 109.086 43.9322 111.364 45.889 113.072C48.0904 115.024 50.781 115.268 53.5531 114.78C55.1022 114.455 56.4882 113.723 57.5482 112.584C57.1405 112.015 56.7328 111.445 56.3252 110.957C54.0423 112.909 51.5148 113.56 48.7427 112.259C46.9489 111.364 46.0521 109.168 45.889 107.541H58.5266V106.483C58.6081 105.751 58.5266 105.101 58.3635 104.531ZM46.0521 105.833C45.8075 103.393 48.2535 100.79 50.944 100.79C54.0423 100.708 55.9991 102.579 56.0806 105.833H46.0521ZM71.0826 98.7562C69.8596 98.5122 68.5551 98.4308 67.3321 98.5122C65.3753 98.6749 63.6631 99.5696 62.2771 101.034C62.6847 101.603 63.0108 102.172 63.5 102.823C63.6631 102.661 63.8262 102.498 63.9892 102.416C65.2938 101.196 66.8429 100.546 68.7181 100.708C70.1857 100.79 71.5718 101.278 71.9794 102.742C72.3056 103.881 72.224 105.101 72.3056 106.321C72.061 106.321 71.9794 106.239 71.8979 106.158C69.9411 104.531 67.7397 104.206 65.3753 104.775C63.1739 105.345 61.7879 107.053 61.6248 109.249C61.4617 111.771 62.6032 113.641 64.8046 114.536C66.1906 115.106 67.7397 115.106 69.2073 114.78C70.3488 114.536 70.838 113.885 72.4686 112.991V114.048H74.7515C74.7515 110.795 74.8331 106.809 74.7515 103.067C74.7515 100.708 73.3655 99.2442 71.0826 98.7562ZM72.224 109.005C72.1425 109.249 72.224 109.493 72.224 109.737C72.224 111.445 71.8164 112.015 70.1857 112.665C69.0443 113.072 67.8213 113.235 66.5983 112.828C65.2122 112.421 64.2338 111.201 64.2338 109.818C64.1523 108.436 65.0492 107.053 66.4352 106.646C68.3105 105.995 70.0226 106.402 71.5718 107.541C72.061 107.948 72.3871 108.354 72.224 109.005ZM84.9431 100.952C87.0629 100.302 89.0197 100.708 90.4873 102.498L90.7319 102.661C91.3026 102.172 91.7918 101.684 92.4441 101.115C92.1995 100.871 92.1179 100.708 91.9549 100.464C89.5904 97.9428 84.9431 97.6174 82.0895 99.6509C78.0944 102.579 78.1759 108.273 80.1327 111.283C82.0079 114.129 84.6985 115.106 87.8783 114.699C89.7535 114.455 91.3026 113.56 92.5256 112.015C91.9549 111.527 91.3842 111.039 90.8134 110.469C90.6504 110.632 90.5688 110.713 90.4873 110.876C88.2859 113.316 84.617 113.072 82.6602 110.469C81.5187 108.924 81.2741 107.134 81.6003 105.345C81.7633 103.311 82.8232 101.684 84.9431 100.952ZM101.902 112.015C101.739 112.096 101.657 112.177 101.657 112.177C101.005 112.665 100.353 112.747 99.6189 112.503C98.8851 112.177 98.8035 111.527 98.722 110.876V101.603C98.722 101.44 98.722 101.766 98.8035 100.952H101.902V98.5122H98.6405V94.4452H96.1945V98.8375H94.0746C93.9116 98.8375 93.667 99.0002 93.667 99.1629C93.5855 99.7323 93.667 100.139 93.667 100.952H96.276V111.364C96.276 112.665 96.6022 113.804 97.7436 114.455C98.9666 115.187 101.331 115.024 102.391 114.129C102.554 114.048 102.636 113.723 102.636 113.641C102.391 113.153 102.146 112.584 101.902 112.015Z" fill="#61DAFB"/>
</svg>
