<svg width="68" height="34" viewBox="0 0 68 34" fill="none" xmlns="http://www.w3.org/2000/svg">
<rect width="68" height="34" rx="5" fill="#1ED760"/>
<path d="M17.4677 10C13.3435 10 10 13.3434 10 17.4676C10 21.5919 13.3435 24.935 17.4677 24.935C21.5923 24.935 24.9354 21.5919 24.9354 17.4676C24.9354 13.3437 21.5923 10.0004 17.4676 10.0004L17.4677 10ZM20.8923 20.7704C20.8605 20.8226 20.8186 20.868 20.7692 20.904C20.7197 20.9401 20.6637 20.966 20.6042 20.9803C20.5447 20.9947 20.483 20.9971 20.4226 20.9876C20.3621 20.978 20.3042 20.9567 20.252 20.9247C18.4987 19.8537 16.2915 19.6112 13.6921 20.2051C13.5717 20.2324 13.4454 20.2109 13.3409 20.1452C13.2364 20.0795 13.1623 19.975 13.1348 19.8546C13.1211 19.795 13.1193 19.7333 13.1295 19.6731C13.1397 19.6128 13.1617 19.5551 13.1942 19.5033C13.2267 19.4516 13.2691 19.4067 13.319 19.3713C13.3689 19.336 13.4253 19.3108 13.4849 19.2973C16.3295 18.6473 18.7696 18.9272 20.738 20.1302C20.7902 20.162 20.8356 20.2039 20.8716 20.2534C20.9076 20.3028 20.9335 20.3589 20.9479 20.4183C20.9622 20.4778 20.9646 20.5395 20.9551 20.5999C20.9456 20.6604 20.9242 20.7183 20.8922 20.7705M21.8063 18.7371C21.6377 19.0111 21.2792 19.0976 21.0054 18.929C18.9982 17.6953 15.9383 17.3379 13.5641 18.0587C13.4163 18.1034 13.2568 18.0877 13.1206 18.0149C12.9844 17.9422 12.8826 17.8184 12.8375 17.6707C12.793 17.523 12.8088 17.3636 12.8816 17.2274C12.9544 17.0913 13.0781 16.9896 13.2258 16.9446C15.9378 16.1217 19.3094 16.5203 21.6145 17.9368C21.8883 18.1053 21.9748 18.4638 21.8062 18.7372L21.8063 18.7371ZM21.8847 16.6198C19.4781 15.1902 15.5071 15.0587 13.2092 15.7562C12.8402 15.8682 12.45 15.6599 12.3382 15.2909C12.2845 15.1136 12.3033 14.9222 12.3906 14.7589C12.4779 14.5955 12.6265 14.4734 12.8037 14.4196C15.4415 13.6187 19.8267 13.7734 22.5977 15.4185C22.6766 15.4652 22.7456 15.527 22.8006 15.6004C22.8557 15.6739 22.8957 15.7574 22.9184 15.8463C22.9411 15.9352 22.946 16.0277 22.9329 16.1186C22.9198 16.2094 22.8889 16.2967 22.842 16.3756C22.6458 16.7074 22.216 16.8168 21.8852 16.6198H21.8847ZM30.3169 16.8937C29.0275 16.5862 28.7984 16.3705 28.7984 15.917C28.7984 15.4886 29.2014 15.2003 29.8015 15.2003C30.3829 15.2003 30.959 15.4193 31.5636 15.87C31.5814 15.8836 31.6046 15.889 31.6269 15.8854C31.6381 15.8838 31.6489 15.88 31.6586 15.874C31.6683 15.8681 31.6766 15.8603 31.6832 15.851L32.3127 14.9636C32.3251 14.946 32.3304 14.9243 32.3274 14.903C32.3244 14.8817 32.3134 14.8623 32.2967 14.8487C31.577 14.2715 30.7673 13.9909 29.8203 13.9909C28.4283 13.9909 27.4554 14.8263 27.4554 16.0217C27.4554 17.3036 28.2945 17.7575 29.7445 18.1079C30.9778 18.392 31.1864 18.6301 31.1864 19.0557C31.1864 19.5274 30.7654 19.8208 30.0878 19.8208C29.3352 19.8208 28.7207 19.5667 28.0341 18.9727C28.017 18.9583 27.995 18.951 27.9726 18.9523C27.9615 18.953 27.9506 18.956 27.9406 18.9611C27.9307 18.9661 27.9218 18.9731 27.9146 18.9816L27.2084 19.8216C27.1942 19.8385 27.1871 19.8602 27.1886 19.8821C27.1901 19.9041 27.2001 19.9246 27.2164 19.9394C28.0154 20.6528 28.9981 21.0291 30.0592 21.0291C31.5592 21.0291 32.5285 20.2096 32.5285 18.9407C32.5311 17.8699 31.8901 17.277 30.3197 16.8949L30.3169 16.8937ZM35.9224 15.6221C35.2724 15.6221 34.7391 15.8782 34.2986 16.403V15.8124C34.2986 15.7657 34.2611 15.7277 34.2148 15.7277H33.06C33.0376 15.7279 33.0163 15.7368 33.0006 15.7527C32.9849 15.7686 32.9761 15.79 32.9762 15.8123V22.3757C32.9762 22.422 33.0137 22.4603 33.06 22.4603H34.2148C34.2371 22.4601 34.2584 22.4511 34.2742 22.4353C34.2899 22.4194 34.2986 22.398 34.2986 22.3757V20.3041C34.7391 20.7972 35.2724 21.0389 35.9223 21.0389C37.1308 21.0389 38.3542 20.1089 38.3542 18.3308C38.356 16.5524 37.1325 15.622 35.9233 15.622L35.9224 15.6221ZM37.0112 18.3308C37.0112 19.2358 36.4539 19.868 35.6549 19.868C34.8657 19.868 34.27 19.2073 34.27 18.3308C34.27 17.4542 34.8657 16.7936 35.6549 16.7936C36.4405 16.7936 37.0112 17.4399 37.0112 18.3308ZM41.4887 15.6221C39.9326 15.6221 38.7136 16.8202 38.7136 18.3502C38.7136 19.8636 39.9245 21.0487 41.4699 21.0487C43.0313 21.0487 44.2539 19.8547 44.2539 18.3308C44.2539 16.8121 43.0394 15.6224 41.4887 15.6224V15.6221ZM41.4887 19.8769C40.6611 19.8769 40.0369 19.2117 40.0369 18.3303C40.0369 17.445 40.6397 16.8024 41.4699 16.8024C42.3028 16.8024 42.9305 17.4674 42.9305 18.3497C42.9305 19.2349 42.3242 19.8769 41.4887 19.8769ZM47.5765 15.7277H46.3058V14.4287C46.3058 14.3822 46.2683 14.3442 46.222 14.3442H45.0672C45.0448 14.3442 45.0233 14.3532 45.0074 14.369C44.9915 14.3848 44.9825 14.4063 44.9824 14.4287V15.7277H44.4278C44.4055 15.7278 44.3841 15.7368 44.3684 15.7526C44.3527 15.7685 44.3439 15.7899 44.344 15.8122V16.8045C44.3439 16.8268 44.3527 16.8482 44.3684 16.8641C44.3841 16.88 44.4055 16.889 44.4278 16.8891H44.9824V19.4569C44.9824 20.494 45.4988 21.0201 46.5181 21.0201C46.9318 21.0201 47.2751 20.9344 47.5988 20.7508C47.6119 20.7436 47.6228 20.733 47.6303 20.7201C47.6379 20.7073 47.6418 20.6926 47.6417 20.6777V19.7324C47.6416 19.7181 47.6379 19.704 47.6308 19.6915C47.6238 19.6791 47.6137 19.6686 47.6015 19.6611C47.5894 19.6533 47.5754 19.6489 47.561 19.6482C47.5465 19.6476 47.5322 19.6508 47.5194 19.6575C47.2974 19.769 47.0825 19.8207 46.8417 19.8207C46.4717 19.8207 46.3058 19.6521 46.3058 19.2758V16.8897H47.5765C47.5988 16.8896 47.6202 16.8806 47.6359 16.8647C47.6516 16.8488 47.6604 16.8274 47.6603 16.805V15.8128C47.6607 15.8017 47.6588 15.7907 47.6548 15.7804C47.6508 15.77 47.6448 15.7606 47.637 15.7527C47.6293 15.7448 47.62 15.7385 47.6097 15.7343C47.5995 15.7301 47.5885 15.728 47.5774 15.7281L47.5765 15.7277ZM52.0031 15.7328V15.5732C52.0031 15.1039 52.1832 14.8947 52.5862 14.8947C52.8272 14.8947 53.0206 14.9425 53.2373 15.0147C53.25 15.019 53.2635 15.0201 53.2768 15.0181C53.29 15.0161 53.3026 15.0109 53.3134 15.003C53.3242 14.9951 53.333 14.9848 53.339 14.9728C53.345 14.9609 53.3481 14.9476 53.3479 14.9342L53.3478 13.9614C53.3481 13.9432 53.3424 13.9255 53.3316 13.9108C53.3208 13.8962 53.3055 13.8855 53.2881 13.8803C53.0598 13.8122 52.7673 13.7425 52.3286 13.7425C51.2629 13.7425 50.6985 14.343 50.6985 15.4784V15.7227H50.1438C50.1214 15.7227 50.0999 15.7317 50.084 15.7475C50.0682 15.7633 50.0592 15.7848 50.0591 15.8072V16.8046C50.0591 16.8512 50.0975 16.8892 50.1438 16.8892H50.6985V20.8489C50.6985 20.8962 50.7369 20.9337 50.7832 20.9337H51.9371C51.9843 20.9337 52.0218 20.8962 52.0218 20.8489V16.8894H53.1L54.7515 20.8488C54.5642 21.2644 54.3796 21.3473 54.128 21.3473C53.9248 21.3473 53.7099 21.2867 53.4915 21.1664C53.4708 21.1559 53.4468 21.1537 53.4245 21.1601C53.4135 21.1638 53.4034 21.1698 53.3948 21.1776C53.3862 21.1854 53.3793 21.1949 53.3746 21.2056L52.9832 22.0643C52.9741 22.0838 52.9729 22.106 52.9797 22.1264C52.9865 22.1468 53.0008 22.1638 53.0197 22.174C53.4281 22.3952 53.7963 22.4897 54.2521 22.4897C55.1045 22.4897 55.5763 22.092 55.9909 21.0237L57.9938 15.8483C57.999 15.8355 58.0009 15.8216 57.9994 15.8079C57.9978 15.7942 57.9928 15.7811 57.9849 15.7697C57.9774 15.7584 57.9672 15.7491 57.9552 15.7427C57.9432 15.7363 57.9298 15.733 57.9162 15.733H56.7141C56.6965 15.7329 56.6793 15.7383 56.6649 15.7485C56.6505 15.7587 56.6397 15.7731 56.6339 15.7897L55.4024 19.3062L54.0541 15.7874C54.048 15.7714 54.0373 15.7577 54.0233 15.748C54.0093 15.7383 53.9926 15.7331 53.9756 15.733H52.0031V15.7328ZM49.4367 15.7277H48.2819C48.2595 15.7278 48.238 15.7368 48.2222 15.7526C48.2063 15.7685 48.1973 15.7899 48.1972 15.8123V20.8489C48.1972 20.8962 48.2356 20.9337 48.2819 20.9337H49.4367C49.4831 20.9337 49.5214 20.8962 49.5214 20.8489V15.8127C49.5215 15.8016 49.5193 15.7905 49.5151 15.7802C49.5108 15.7699 49.5046 15.7606 49.4967 15.7527C49.4888 15.7448 49.4795 15.7386 49.4692 15.7344C49.4589 15.7301 49.4478 15.728 49.4367 15.728V15.7277ZM48.8659 13.4342C48.4084 13.4342 48.0376 13.8046 48.0376 14.2619C48.0376 14.3707 48.059 14.4784 48.1006 14.5789C48.1422 14.6794 48.2032 14.7707 48.2802 14.8477C48.3571 14.9246 48.4484 14.9856 48.5489 15.0272C48.6494 15.0688 48.7572 15.0903 48.8659 15.0902C49.3234 15.0902 49.6935 14.7196 49.6935 14.2619C49.6934 14.0424 49.6062 13.8319 49.451 13.6767C49.2959 13.5215 49.0854 13.4343 48.8659 13.4342Z" fill="white"/>
</svg>
