<svg width="128" height="128" viewBox="0 0 128 128" fill="none" xmlns="http://www.w3.org/2000/svg">
<rect x="1" y="1" width="126" height="126" rx="19" stroke="black" stroke-width="0"/>
<path d="M64 33C50.3997 33 41.9026 39.7755 38.5 53.332C43.5984 46.5557 49.5502 44.0147 56.3484 45.709C60.2299 46.6733 63.0039 49.4788 66.0758 52.5877C71.0754 57.6451 76.8623 63.5 89.4999 63.5C103.099 63.5 111.597 56.7237 115 43.164C109.901 49.9443 103.95 52.4853 97.1508 50.791C93.27 49.8259 90.4992 47.0212 87.4233 43.9123C82.4269 38.8549 76.6416 33 64 33ZM38.5 63.5C24.9005 63.5 16.4027 70.2763 13 83.836C18.0984 77.0557 24.0495 74.5147 30.8484 76.209C34.73 77.1741 37.5039 79.9788 40.5758 83.0877C45.5754 88.1451 51.3623 94 64 94C77.5994 94 86.0973 87.2245 89.4999 73.668C84.4007 80.4443 78.4497 82.9853 71.6507 81.291C67.77 80.3267 64.9992 77.5212 61.9233 74.4123C56.9269 69.3549 51.1416 63.5 38.5 63.5Z" fill="#38B2AC"/>
</svg>
