<svg width="90" height="90" viewBox="0 0 90 90" fill="none" xmlns="http://www.w3.org/2000/svg">
<rect width="90" height="90" rx="5" fill="#1E1E1E"/>
<path d="M15.5559 36.4967C15.5559 36.4967 14.1315 35.4577 15.8429 34.0721L19.8276 30.471C19.8276 30.471 20.9692 29.2575 22.1752 30.3154L58.961 58.4489V71.94C58.961 71.94 58.9426 74.0587 56.252 73.8254L15.5559 36.4967Z" fill="#1E1E1E" stroke="white" stroke-width="2"/>
<path d="M25.0489 45.2489L15.4387 53.9773C15.4387 53.9773 14.4516 54.7107 15.4387 56.0235L19.9002 60.0767C19.9002 60.0767 20.9598 61.2151 22.5268 59.9207L32.7121 52.2024L25.0489 45.2489ZM41.9179 45.3211L59.5394 31.8765L59.4254 18.4262C59.4254 18.4262 58.6729 15.4906 56.1623 17.0197L32.7121 38.3433L41.9179 45.3211Z" fill="#1E1E1E" stroke="white" stroke-width="2"/>
<path d="M56.583 73.6672C57.5998 74.7104 58.8334 74.368 58.8334 74.368L72.4851 67.6332C74.233 66.4398 73.9884 64.96 73.9884 64.96V24.734C73.9884 22.9652 72.1812 22.3548 72.1812 22.3548L60.348 16.6433C57.7629 15.0432 56.0686 16.9322 56.0686 16.9322C56.0686 16.9322 58.246 15.3614 59.3126 18.3339V71.522C59.3126 71.888 59.2349 72.2465 59.0794 72.5704C58.7684 73.2012 58.0905 73.7875 56.4701 73.5417L56.583 73.6672Z" fill="#1E1E1E" stroke="white" stroke-width="2"/>
</svg>
