<svg width="22.91" height="30.56" viewBox="0 0 108 107" fill="none" xmlns="http://www.w3.org/2000/svg">
<path d="M3.96099 38.4347C3.96099 38.4347 1.49852 36.6385 4.45722 34.2431L11.346 28.0175C11.346 28.0175 13.3195 25.9196 15.4045 27.7486L79 76.386V99.7094C79 99.7094 78.9683 103.372 74.3167 102.969L3.96099 38.4347Z" fill="black" stroke="white" stroke-width="6"/>
<path d="M20.3726 53.5656L3.75845 68.6553C3.75845 68.6553 2.05194 69.9233 3.75845 72.193L11.4716 79.2C11.4716 79.2 13.3034 81.1681 16.0124 78.9305L33.6208 65.587L20.3726 53.5656ZM49.5359 53.6905L80 30.4474L79.803 7.19447C79.803 7.19447 78.5021 2.11936 74.1616 4.76292L33.6208 41.6273L49.5359 53.6905Z" fill="black" stroke="white" stroke-width="6"/>
<path d="M74.8892 102.695C76.6472 104.499 78.7797 103.907 78.7797 103.907L102.381 92.2638C105.403 90.2007 104.98 87.6423 104.98 87.6423V18.0993C104.98 15.0415 101.856 13.9863 101.856 13.9863L81.3983 4.11214C76.9291 1.34581 74 4.61154 74 4.61154C74 4.61154 77.7643 1.89597 79.6083 7.03484V98.9868C79.6083 99.6196 79.4739 100.239 79.2051 100.799C78.6675 101.89 77.4955 102.903 74.6942 102.478L74.8892 102.695Z" fill="black" stroke="white" stroke-width="6"/>
</svg>
